<svg xmlns="http://www.w3.org/2000/svg" xmlns:xlink="http://www.w3.org/1999/xlink" width="48" zoomAndPan="magnify" viewBox="0 0 36 36.000001" height="48" preserveAspectRatio="xMidYMid meet" version="1.0"><defs><clipPath id="76eef6e5d2"><path d="M 20 14 L 26 14 L 26 20 L 20 20 Z M 20 14 " clip-rule="nonzero"/></clipPath><clipPath id="7479703985"><path d="M 20.160156 8.433594 L 30.882812 13.046875 L 26.269531 23.773438 L 15.542969 19.15625 Z M 20.160156 8.433594 " clip-rule="nonzero"/></clipPath><clipPath id="a6edd2d973"><path d="M 20.160156 8.433594 L 30.882812 13.046875 L 26.269531 23.773438 L 15.542969 19.15625 Z M 20.160156 8.433594 " clip-rule="nonzero"/></clipPath><clipPath id="9361cf70b0"><path d="M 20.160156 8.433594 L 30.882812 13.046875 L 26.269531 23.773438 L 15.542969 19.15625 Z M 20.160156 8.433594 " clip-rule="nonzero"/></clipPath><clipPath id="549000045b"><path d="M 23 13 L 26 13 L 26 15 L 23 15 Z M 23 13 " clip-rule="nonzero"/></clipPath><clipPath id="5af1ce209e"><path d="M 20.160156 8.433594 L 30.882812 13.046875 L 26.269531 23.773438 L 15.542969 19.15625 Z M 20.160156 8.433594 " clip-rule="nonzero"/></clipPath><clipPath id="5d048b8983"><path d="M 20.160156 8.433594 L 30.882812 13.046875 L 26.269531 23.773438 L 15.542969 19.15625 Z M 20.160156 8.433594 " clip-rule="nonzero"/></clipPath><clipPath id="146c4c3cb2"><path d="M 20.160156 8.433594 L 30.882812 13.046875 L 26.269531 23.773438 L 15.542969 19.15625 Z M 20.160156 8.433594 " clip-rule="nonzero"/></clipPath><clipPath id="9b1022458a"><path d="M 20 13 L 26 13 L 26 20 L 20 20 Z M 20 13 " clip-rule="nonzero"/></clipPath><clipPath id="bfe85272da"><path d="M 20.160156 8.433594 L 30.882812 13.046875 L 26.269531 23.773438 L 15.542969 19.15625 Z M 20.160156 8.433594 " clip-rule="nonzero"/></clipPath><clipPath id="07036fc5c9"><path d="M 20.160156 8.433594 L 30.882812 13.046875 L 26.269531 23.773438 L 15.542969 19.15625 Z M 20.160156 8.433594 " clip-rule="nonzero"/></clipPath><clipPath id="55d150d5b4"><path d="M 20.160156 8.433594 L 30.882812 13.046875 L 26.269531 23.773438 L 15.542969 19.15625 Z M 20.160156 8.433594 " clip-rule="nonzero"/></clipPath><clipPath id="5d469b72bf"><path d="M 23 15 L 25 15 L 25 18 L 23 18 Z M 23 15 " clip-rule="nonzero"/></clipPath><clipPath id="88407ed66f"><path d="M 20.160156 8.433594 L 30.882812 13.046875 L 26.269531 23.773438 L 15.542969 19.15625 Z M 20.160156 8.433594 " clip-rule="nonzero"/></clipPath><clipPath id="7d23e70a76"><path d="M 20.160156 8.433594 L 30.882812 13.046875 L 26.269531 23.773438 L 15.542969 19.15625 Z M 20.160156 8.433594 " clip-rule="nonzero"/></clipPath><clipPath id="3dceb58c6b"><path d="M 20.160156 8.433594 L 30.882812 13.046875 L 26.269531 23.773438 L 15.542969 19.15625 Z M 20.160156 8.433594 " clip-rule="nonzero"/></clipPath><clipPath id="3f4715d01e"><path d="M 14 14 L 20 14 L 20 19 L 14 19 Z M 14 14 " clip-rule="nonzero"/></clipPath><clipPath id="40cb9a4a52"><path d="M 10.496094 10.457031 L 22.082031 9.039062 L 23.5 20.628906 L 11.914062 22.046875 Z M 10.496094 10.457031 " clip-rule="nonzero"/></clipPath><clipPath id="94920ec75d"><path d="M 10.496094 10.457031 L 22.082031 9.039062 L 23.5 20.628906 L 11.914062 22.046875 Z M 10.496094 10.457031 " clip-rule="nonzero"/></clipPath><clipPath id="48815f5a37"><path d="M 10.496094 10.457031 L 22.082031 9.039062 L 23.5 20.628906 L 11.914062 22.046875 Z M 10.496094 10.457031 " clip-rule="nonzero"/></clipPath><clipPath id="46d32ca92c"><path d="M 16 12 L 18 12 L 18 15 L 16 15 Z M 16 12 " clip-rule="nonzero"/></clipPath><clipPath id="e3f5c858f9"><path d="M 10.496094 10.457031 L 22.082031 9.039062 L 23.5 20.628906 L 11.914062 22.046875 Z M 10.496094 10.457031 " clip-rule="nonzero"/></clipPath><clipPath id="ce56d180f8"><path d="M 10.496094 10.457031 L 22.082031 9.039062 L 23.5 20.628906 L 11.914062 22.046875 Z M 10.496094 10.457031 " clip-rule="nonzero"/></clipPath><clipPath id="e9ea675a70"><path d="M 10.496094 10.457031 L 22.082031 9.039062 L 23.5 20.628906 L 11.914062 22.046875 Z M 10.496094 10.457031 " clip-rule="nonzero"/></clipPath><clipPath id="497926d31d"><path d="M 14 12 L 20 12 L 20 19 L 14 19 Z M 14 12 " clip-rule="nonzero"/></clipPath><clipPath id="9d9383f0d5"><path d="M 10.496094 10.457031 L 22.082031 9.039062 L 23.5 20.628906 L 11.914062 22.046875 Z M 10.496094 10.457031 " clip-rule="nonzero"/></clipPath><clipPath id="2e0cdbe0c4"><path d="M 10.496094 10.457031 L 22.082031 9.039062 L 23.5 20.628906 L 11.914062 22.046875 Z M 10.496094 10.457031 " clip-rule="nonzero"/></clipPath><clipPath id="a99ffa8493"><path d="M 10.496094 10.457031 L 22.082031 9.039062 L 23.5 20.628906 L 11.914062 22.046875 Z M 10.496094 10.457031 " clip-rule="nonzero"/></clipPath><clipPath id="22c7e303e8"><path d="M 17 14 L 19 14 L 19 17 L 17 17 Z M 17 14 " clip-rule="nonzero"/></clipPath><clipPath id="cef94bac92"><path d="M 10.496094 10.457031 L 22.082031 9.039062 L 23.5 20.628906 L 11.914062 22.046875 Z M 10.496094 10.457031 " clip-rule="nonzero"/></clipPath><clipPath id="8c748aa478"><path d="M 10.496094 10.457031 L 22.082031 9.039062 L 23.5 20.628906 L 11.914062 22.046875 Z M 10.496094 10.457031 " clip-rule="nonzero"/></clipPath><clipPath id="ffc3f99412"><path d="M 10.496094 10.457031 L 22.082031 9.039062 L 23.5 20.628906 L 11.914062 22.046875 Z M 10.496094 10.457031 " clip-rule="nonzero"/></clipPath><clipPath id="15a0a648f3"><path d="M 7 13 L 13 13 L 13 19 L 7 19 Z M 7 13 " clip-rule="nonzero"/></clipPath><clipPath id="45c2e5387e"><path d="M 6.480469 6.101562 L 19.21875 11.574219 L 13.746094 24.3125 L 1.007812 18.839844 Z M 6.480469 6.101562 " clip-rule="nonzero"/></clipPath><clipPath id="6bb6651359"><path d="M 6.480469 6.101562 L 19.21875 11.574219 L 13.746094 24.3125 L 1.007812 18.839844 Z M 6.480469 6.101562 " clip-rule="nonzero"/></clipPath><clipPath id="513067af86"><path d="M 6.480469 6.101562 L 19.21875 11.574219 L 13.746094 24.3125 L 1.007812 18.839844 Z M 6.480469 6.101562 " clip-rule="nonzero"/></clipPath><clipPath id="6b47169769"><path d="M 10 12 L 13 12 L 13 14 L 10 14 Z M 10 12 " clip-rule="nonzero"/></clipPath><clipPath id="653cd14647"><path d="M 6.480469 6.101562 L 19.21875 11.574219 L 13.746094 24.3125 L 1.007812 18.839844 Z M 6.480469 6.101562 " clip-rule="nonzero"/></clipPath><clipPath id="ced99624bc"><path d="M 6.480469 6.101562 L 19.21875 11.574219 L 13.746094 24.3125 L 1.007812 18.839844 Z M 6.480469 6.101562 " clip-rule="nonzero"/></clipPath><clipPath id="fd710fc166"><path d="M 6.480469 6.101562 L 19.21875 11.574219 L 13.746094 24.3125 L 1.007812 18.839844 Z M 6.480469 6.101562 " clip-rule="nonzero"/></clipPath><clipPath id="adc4080345"><path d="M 6 12 L 13 12 L 13 19 L 6 19 Z M 6 12 " clip-rule="nonzero"/></clipPath><clipPath id="b44ca452c1"><path d="M 6.480469 6.101562 L 19.21875 11.574219 L 13.746094 24.3125 L 1.007812 18.839844 Z M 6.480469 6.101562 " clip-rule="nonzero"/></clipPath><clipPath id="32497f59c0"><path d="M 6.480469 6.101562 L 19.21875 11.574219 L 13.746094 24.3125 L 1.007812 18.839844 Z M 6.480469 6.101562 " clip-rule="nonzero"/></clipPath><clipPath id="4781b84c4d"><path d="M 6.480469 6.101562 L 19.21875 11.574219 L 13.746094 24.3125 L 1.007812 18.839844 Z M 6.480469 6.101562 " clip-rule="nonzero"/></clipPath><clipPath id="7d55568fb4"><path d="M 10 14 L 12 14 L 12 17 L 10 17 Z M 10 14 " clip-rule="nonzero"/></clipPath><clipPath id="4abba3421f"><path d="M 6.480469 6.101562 L 19.21875 11.574219 L 13.746094 24.3125 L 1.007812 18.839844 Z M 6.480469 6.101562 " clip-rule="nonzero"/></clipPath><clipPath id="c1558b0dd5"><path d="M 6.480469 6.101562 L 19.21875 11.574219 L 13.746094 24.3125 L 1.007812 18.839844 Z M 6.480469 6.101562 " clip-rule="nonzero"/></clipPath><clipPath id="a38188953b"><path d="M 6.480469 6.101562 L 19.21875 11.574219 L 13.746094 24.3125 L 1.007812 18.839844 Z M 6.480469 6.101562 " clip-rule="nonzero"/></clipPath><clipPath id="95f86e7059"><path d="M 20 14 L 25 14 L 25 19 L 20 19 Z M 20 14 " clip-rule="nonzero"/></clipPath><clipPath id="1462cb2baa"><path d="M 15.636719 11.867188 L 26.273438 9.289062 L 28.851562 19.925781 L 18.214844 22.503906 Z M 15.636719 11.867188 " clip-rule="nonzero"/></clipPath><clipPath id="cb03fa47a4"><path d="M 15.636719 11.867188 L 26.273438 9.289062 L 28.851562 19.925781 L 18.214844 22.503906 Z M 15.636719 11.867188 " clip-rule="nonzero"/></clipPath><clipPath id="100d58549e"><path d="M 15.636719 11.867188 L 26.273438 9.289062 L 28.851562 19.925781 L 18.214844 22.503906 Z M 15.636719 11.867188 " clip-rule="nonzero"/></clipPath><clipPath id="313e7c6599"><path d="M 21 13 L 23 13 L 23 15 L 21 15 Z M 21 13 " clip-rule="nonzero"/></clipPath><clipPath id="9baac5213c"><path d="M 15.636719 11.867188 L 26.273438 9.289062 L 28.851562 19.925781 L 18.214844 22.503906 Z M 15.636719 11.867188 " clip-rule="nonzero"/></clipPath><clipPath id="a55b1273cf"><path d="M 15.636719 11.867188 L 26.273438 9.289062 L 28.851562 19.925781 L 18.214844 22.503906 Z M 15.636719 11.867188 " clip-rule="nonzero"/></clipPath><clipPath id="35557b814b"><path d="M 15.636719 11.867188 L 26.273438 9.289062 L 28.851562 19.925781 L 18.214844 22.503906 Z M 15.636719 11.867188 " clip-rule="nonzero"/></clipPath><clipPath id="3e3df30ecf"><path d="M 20 13 L 25 13 L 25 19 L 20 19 Z M 20 13 " clip-rule="nonzero"/></clipPath><clipPath id="03cc0d8752"><path d="M 15.636719 11.867188 L 26.273438 9.289062 L 28.851562 19.925781 L 18.214844 22.503906 Z M 15.636719 11.867188 " clip-rule="nonzero"/></clipPath><clipPath id="95545c45ae"><path d="M 15.636719 11.867188 L 26.273438 9.289062 L 28.851562 19.925781 L 18.214844 22.503906 Z M 15.636719 11.867188 " clip-rule="nonzero"/></clipPath><clipPath id="0b248a13cb"><path d="M 15.636719 11.867188 L 26.273438 9.289062 L 28.851562 19.925781 L 18.214844 22.503906 Z M 15.636719 11.867188 " clip-rule="nonzero"/></clipPath><clipPath id="d94019e901"><path d="M 22 15 L 24 15 L 24 17 L 22 17 Z M 22 15 " clip-rule="nonzero"/></clipPath><clipPath id="0587faebab"><path d="M 15.636719 11.867188 L 26.273438 9.289062 L 28.851562 19.925781 L 18.214844 22.503906 Z M 15.636719 11.867188 " clip-rule="nonzero"/></clipPath><clipPath id="e9d73d37d6"><path d="M 15.636719 11.867188 L 26.273438 9.289062 L 28.851562 19.925781 L 18.214844 22.503906 Z M 15.636719 11.867188 " clip-rule="nonzero"/></clipPath><clipPath id="d327050784"><path d="M 15.636719 11.867188 L 26.273438 9.289062 L 28.851562 19.925781 L 18.214844 22.503906 Z M 15.636719 11.867188 " clip-rule="nonzero"/></clipPath><clipPath id="8a347cd4fa"><path d="M 24 15 L 29 15 L 29 19 L 24 19 Z M 24 15 " clip-rule="nonzero"/></clipPath><clipPath id="e2f2439871"><path d="M 20.296875 11.550781 L 31.113281 9.882812 L 32.78125 20.703125 L 21.960938 22.371094 Z M 20.296875 11.550781 " clip-rule="nonzero"/></clipPath><clipPath id="d12dc92159"><path d="M 20.296875 11.550781 L 31.113281 9.882812 L 32.78125 20.703125 L 21.960938 22.371094 Z M 20.296875 11.550781 " clip-rule="nonzero"/></clipPath><clipPath id="2275329c7c"><path d="M 20.296875 11.550781 L 31.113281 9.882812 L 32.78125 20.703125 L 21.960938 22.371094 Z M 20.296875 11.550781 " clip-rule="nonzero"/></clipPath><clipPath id="a4384d190a"><path d="M 26 13 L 28 13 L 28 15 L 26 15 Z M 26 13 " clip-rule="nonzero"/></clipPath><clipPath id="d281b03521"><path d="M 20.296875 11.550781 L 31.113281 9.882812 L 32.78125 20.703125 L 21.960938 22.371094 Z M 20.296875 11.550781 " clip-rule="nonzero"/></clipPath><clipPath id="ba8ca2df90"><path d="M 20.296875 11.550781 L 31.113281 9.882812 L 32.78125 20.703125 L 21.960938 22.371094 Z M 20.296875 11.550781 " clip-rule="nonzero"/></clipPath><clipPath id="94ae572b69"><path d="M 20.296875 11.550781 L 31.113281 9.882812 L 32.78125 20.703125 L 21.960938 22.371094 Z M 20.296875 11.550781 " clip-rule="nonzero"/></clipPath><clipPath id="e22c69f598"><path d="M 24 13 L 29 13 L 29 20 L 24 20 Z M 24 13 " clip-rule="nonzero"/></clipPath><clipPath id="a14e6c0391"><path d="M 20.296875 11.550781 L 31.113281 9.882812 L 32.78125 20.703125 L 21.960938 22.371094 Z M 20.296875 11.550781 " clip-rule="nonzero"/></clipPath><clipPath id="edfc119805"><path d="M 20.296875 11.550781 L 31.113281 9.882812 L 32.78125 20.703125 L 21.960938 22.371094 Z M 20.296875 11.550781 " clip-rule="nonzero"/></clipPath><clipPath id="228b220948"><path d="M 20.296875 11.550781 L 31.113281 9.882812 L 32.78125 20.703125 L 21.960938 22.371094 Z M 20.296875 11.550781 " clip-rule="nonzero"/></clipPath><clipPath id="4d44a4f90e"><path d="M 26 15 L 29 15 L 29 17 L 26 17 Z M 26 15 " clip-rule="nonzero"/></clipPath><clipPath id="3308c66799"><path d="M 20.296875 11.550781 L 31.113281 9.882812 L 32.78125 20.703125 L 21.960938 22.371094 Z M 20.296875 11.550781 " clip-rule="nonzero"/></clipPath><clipPath id="371c371a57"><path d="M 20.296875 11.550781 L 31.113281 9.882812 L 32.78125 20.703125 L 21.960938 22.371094 Z M 20.296875 11.550781 " clip-rule="nonzero"/></clipPath><clipPath id="a3aac55740"><path d="M 20.296875 11.550781 L 31.113281 9.882812 L 32.78125 20.703125 L 21.960938 22.371094 Z M 20.296875 11.550781 " clip-rule="nonzero"/></clipPath><clipPath id="5a2a0fc20b"><path d="M 5 2 L 31 2 L 31 22 L 5 22 Z M 5 2 " clip-rule="nonzero"/></clipPath><clipPath id="cb269bdb05"><path d="M 30.40625 21.539062 L 5.59375 21.539062 L 5.59375 15.335938 C 5.59375 8.496094 11.160156 2.929688 18 2.929688 C 24.839844 2.929688 30.40625 8.496094 30.40625 15.335938 Z M 7.785156 19.351562 L 28.214844 19.351562 L 28.214844 15.335938 C 28.214844 9.703125 23.632812 5.121094 18 5.121094 C 12.367188 5.121094 7.785156 9.703125 7.785156 15.335938 Z M 7.785156 19.351562 " clip-rule="nonzero"/></clipPath><linearGradient x1="24" gradientTransform="matrix(0.72973, 0, 0, 0.72973, 0.486486, 0.00000194595)" y1="4.017" x2="24" gradientUnits="userSpaceOnUse" y2="29.516999" id="7e93a84cfb"><stop stop-opacity="1" stop-color="rgb(83.537292%, 45.643616%, 14.72168%)" offset="0"/><stop stop-opacity="1" stop-color="rgb(83.415222%, 45.556641%, 14.66217%)" offset="0.0078125"/><stop stop-opacity="1" stop-color="rgb(83.172607%, 45.38269%, 14.541626%)" offset="0.015625"/><stop stop-opacity="1" stop-color="rgb(82.928467%, 45.210266%, 14.422607%)" offset="0.0234375"/><stop stop-opacity="1" stop-color="rgb(82.684326%, 45.036316%, 14.302063%)" offset="0.03125"/><stop stop-opacity="1" stop-color="rgb(82.440186%, 44.863892%, 14.183044%)" offset="0.0390625"/><stop stop-opacity="1" stop-color="rgb(82.196045%, 44.691467%, 14.0625%)" offset="0.046875"/><stop stop-opacity="1" stop-color="rgb(81.951904%, 44.517517%, 13.943481%)" offset="0.0546875"/><stop stop-opacity="1" stop-color="rgb(81.707764%, 44.345093%, 13.822937%)" offset="0.0625"/><stop stop-opacity="1" stop-color="rgb(81.463623%, 44.171143%, 13.703918%)" offset="0.0703125"/><stop stop-opacity="1" stop-color="rgb(81.219482%, 43.998718%, 13.583374%)" offset="0.078125"/><stop stop-opacity="1" stop-color="rgb(80.975342%, 43.826294%, 13.464355%)" offset="0.0859375"/><stop stop-opacity="1" stop-color="rgb(80.731201%, 43.652344%, 13.343811%)" offset="0.09375"/><stop stop-opacity="1" stop-color="rgb(80.488586%, 43.479919%, 13.224792%)" offset="0.101562"/><stop stop-opacity="1" stop-color="rgb(80.244446%, 43.307495%, 13.104248%)" offset="0.109375"/><stop stop-opacity="1" stop-color="rgb(80.000305%, 43.133545%, 12.985229%)" offset="0.117187"/><stop stop-opacity="1" stop-color="rgb(79.756165%, 42.961121%, 12.864685%)" offset="0.125"/><stop stop-opacity="1" stop-color="rgb(79.512024%, 42.78717%, 12.745667%)" offset="0.132812"/><stop stop-opacity="1" stop-color="rgb(79.267883%, 42.614746%, 12.625122%)" offset="0.140625"/><stop stop-opacity="1" stop-color="rgb(79.023743%, 42.442322%, 12.506104%)" offset="0.148437"/><stop stop-opacity="1" stop-color="rgb(78.779602%, 42.268372%, 12.385559%)" offset="0.15625"/><stop stop-opacity="1" stop-color="rgb(78.535461%, 42.095947%, 12.266541%)" offset="0.164062"/><stop stop-opacity="1" stop-color="rgb(78.321838%, 41.938782%, 12.155151%)" offset="0.171875"/><stop stop-opacity="1" stop-color="rgb(78.053284%, 41.732788%, 12.001038%)" offset="0.1875"/><stop stop-opacity="1" stop-color="rgb(77.696228%, 41.459656%, 11.79657%)" offset="0.203125"/><stop stop-opacity="1" stop-color="rgb(77.340698%, 41.184998%, 11.592102%)" offset="0.21875"/><stop stop-opacity="1" stop-color="rgb(76.983643%, 40.911865%, 11.387634%)" offset="0.234375"/><stop stop-opacity="1" stop-color="rgb(76.626587%, 40.637207%, 11.183167%)" offset="0.25"/><stop stop-opacity="1" stop-color="rgb(76.271057%, 40.364075%, 10.978699%)" offset="0.265625"/><stop stop-opacity="1" stop-color="rgb(75.914001%, 40.089417%, 10.774231%)" offset="0.28125"/><stop stop-opacity="1" stop-color="rgb(75.556946%, 39.816284%, 10.571289%)" offset="0.296875"/><stop stop-opacity="1" stop-color="rgb(75.201416%, 39.541626%, 10.366821%)" offset="0.3125"/><stop stop-opacity="1" stop-color="rgb(74.84436%, 39.268494%, 10.162354%)" offset="0.328125"/><stop stop-opacity="1" stop-color="rgb(74.488831%, 38.993835%, 9.957886%)" offset="0.34375"/><stop stop-opacity="1" stop-color="rgb(74.131775%, 38.720703%, 9.753418%)" offset="0.359375"/><stop stop-opacity="1" stop-color="rgb(73.774719%, 38.446045%, 9.54895%)" offset="0.375"/><stop stop-opacity="1" stop-color="rgb(73.419189%, 38.172913%, 9.344482%)" offset="0.390625"/><stop stop-opacity="1" stop-color="rgb(73.062134%, 37.898254%, 9.140015%)" offset="0.40625"/><stop stop-opacity="1" stop-color="rgb(72.705078%, 37.625122%, 8.935547%)" offset="0.421875"/><stop stop-opacity="1" stop-color="rgb(72.349548%, 37.350464%, 8.731079%)" offset="0.4375"/><stop stop-opacity="1" stop-color="rgb(71.992493%, 37.077332%, 8.526611%)" offset="0.453125"/><stop stop-opacity="1" stop-color="rgb(71.635437%, 36.802673%, 8.322144%)" offset="0.46875"/><stop stop-opacity="1" stop-color="rgb(71.279907%, 36.529541%, 8.119202%)" offset="0.484375"/><stop stop-opacity="1" stop-color="rgb(70.922852%, 36.254883%, 7.914734%)" offset="0.5"/><stop stop-opacity="1" stop-color="rgb(70.565796%, 35.98175%, 7.710266%)" offset="0.515625"/><stop stop-opacity="1" stop-color="rgb(70.23468%, 35.72998%, 7.524109%)" offset="0.53125"/><stop stop-opacity="1" stop-color="rgb(69.958496%, 35.528564%, 7.376099%)" offset="0.546875"/><stop stop-opacity="1" stop-color="rgb(69.709778%, 35.351562%, 7.249451%)" offset="0.5625"/><stop stop-opacity="1" stop-color="rgb(69.46106%, 35.176086%, 7.122803%)" offset="0.578125"/><stop stop-opacity="1" stop-color="rgb(69.213867%, 35.00061%, 6.997681%)" offset="0.59375"/><stop stop-opacity="1" stop-color="rgb(68.965149%, 34.823608%, 6.871033%)" offset="0.609375"/><stop stop-opacity="1" stop-color="rgb(68.716431%, 34.648132%, 6.744385%)" offset="0.625"/><stop stop-opacity="1" stop-color="rgb(68.469238%, 34.472656%, 6.617737%)" offset="0.640625"/><stop stop-opacity="1" stop-color="rgb(68.22052%, 34.295654%, 6.491089%)" offset="0.65625"/><stop stop-opacity="1" stop-color="rgb(67.971802%, 34.120178%, 6.364441%)" offset="0.671875"/><stop stop-opacity="1" stop-color="rgb(67.724609%, 33.944702%, 6.239319%)" offset="0.6875"/><stop stop-opacity="1" stop-color="rgb(67.475891%, 33.7677%, 6.112671%)" offset="0.703125"/><stop stop-opacity="1" stop-color="rgb(67.227173%, 33.592224%, 5.986023%)" offset="0.71875"/><stop stop-opacity="1" stop-color="rgb(66.97998%, 33.416748%, 5.859375%)" offset="0.734375"/><stop stop-opacity="1" stop-color="rgb(66.731262%, 33.239746%, 5.732727%)" offset="0.75"/><stop stop-opacity="1" stop-color="rgb(66.482544%, 33.06427%, 5.607605%)" offset="0.765625"/><stop stop-opacity="1" stop-color="rgb(66.235352%, 32.887268%, 5.480957%)" offset="0.78125"/><stop stop-opacity="1" stop-color="rgb(65.986633%, 32.711792%, 5.354309%)" offset="0.796875"/><stop stop-opacity="1" stop-color="rgb(65.737915%, 32.536316%, 5.227661%)" offset="0.8125"/><stop stop-opacity="1" stop-color="rgb(65.490723%, 32.359314%, 5.101013%)" offset="0.828125"/><stop stop-opacity="1" stop-color="rgb(65.242004%, 32.183838%, 4.975891%)" offset="0.84375"/><stop stop-opacity="1" stop-color="rgb(64.993286%, 32.008362%, 4.849243%)" offset="0.859375"/><stop stop-opacity="1" stop-color="rgb(64.772034%, 31.84967%, 4.736328%)" offset="0.875"/><stop stop-opacity="1" stop-color="rgb(64.515686%, 31.661987%, 4.608154%)" offset="0.9375"/><stop stop-opacity="1" stop-color="rgb(64.199829%, 31.42395%, 4.449463%)" offset="1"/></linearGradient><clipPath id="cc9706c6ea"><path d="M 3 17 L 33 17 L 33 33 L 3 33 Z M 3 17 " clip-rule="nonzero"/></clipPath><clipPath id="ae7918881b"><path d="M 32.308594 18.363281 L 32.011719 20.179688 L 31.96875 20.445312 L 30.253906 30.878906 C 30.128906 31.597656 29.457031 32.121094 28.660156 32.121094 L 7.339844 32.121094 C 6.542969 32.121094 5.871094 31.597656 5.746094 30.878906 L 4.046875 20.445312 L 4.003906 20.179688 L 3.703125 18.363281 C 3.632812 17.917969 4.003906 17.527344 4.5 17.527344 L 31.515625 17.527344 C 32.011719 17.527344 32.382812 17.917969 32.308594 18.363281 Z M 32.308594 18.363281 " clip-rule="nonzero"/></clipPath><linearGradient x1="24.01" gradientTransform="matrix(0.72973, 0, 0, 0.72973, 0.486486, 0.00000194595)" y1="24.016999" x2="24.01" gradientUnits="userSpaceOnUse" y2="44.017" id="7315f464e1"><stop stop-opacity="1" stop-color="rgb(97.546387%, 59.243774%, 25.492859%)" offset="0"/><stop stop-opacity="1" stop-color="rgb(97.447205%, 59.14917%, 25.39978%)" offset="0.015625"/><stop stop-opacity="1" stop-color="rgb(97.24884%, 58.959961%, 25.213623%)" offset="0.03125"/><stop stop-opacity="1" stop-color="rgb(97.052002%, 58.769226%, 25.028992%)" offset="0.046875"/><stop stop-opacity="1" stop-color="rgb(96.853638%, 58.580017%, 24.842834%)" offset="0.0625"/><stop stop-opacity="1" stop-color="rgb(96.656799%, 58.390808%, 24.658203%)" offset="0.078125"/><stop stop-opacity="1" stop-color="rgb(96.459961%, 58.201599%, 24.472046%)" offset="0.09375"/><stop stop-opacity="1" stop-color="rgb(96.261597%, 58.01239%, 24.285889%)" offset="0.109375"/><stop stop-opacity="1" stop-color="rgb(96.064758%, 57.821655%, 24.101257%)" offset="0.125"/><stop stop-opacity="1" stop-color="rgb(95.866394%, 57.632446%, 23.9151%)" offset="0.140625"/><stop stop-opacity="1" stop-color="rgb(95.669556%, 57.443237%, 23.728943%)" offset="0.15625"/><stop stop-opacity="1" stop-color="rgb(95.472717%, 57.254028%, 23.544312%)" offset="0.171875"/><stop stop-opacity="1" stop-color="rgb(95.274353%, 57.063293%, 23.358154%)" offset="0.1875"/><stop stop-opacity="1" stop-color="rgb(95.077515%, 56.874084%, 23.171997%)" offset="0.203125"/><stop stop-opacity="1" stop-color="rgb(94.87915%, 56.684875%, 22.987366%)" offset="0.21875"/><stop stop-opacity="1" stop-color="rgb(94.682312%, 56.495667%, 22.801208%)" offset="0.234375"/><stop stop-opacity="1" stop-color="rgb(94.485474%, 56.306458%, 22.616577%)" offset="0.25"/><stop stop-opacity="1" stop-color="rgb(94.287109%, 56.115723%, 22.43042%)" offset="0.265625"/><stop stop-opacity="1" stop-color="rgb(94.090271%, 55.926514%, 22.244263%)" offset="0.28125"/><stop stop-opacity="1" stop-color="rgb(93.891907%, 55.737305%, 22.059631%)" offset="0.296875"/><stop stop-opacity="1" stop-color="rgb(93.695068%, 55.548096%, 21.873474%)" offset="0.3125"/><stop stop-opacity="1" stop-color="rgb(93.49823%, 55.357361%, 21.687317%)" offset="0.328125"/><stop stop-opacity="1" stop-color="rgb(93.299866%, 55.168152%, 21.502686%)" offset="0.34375"/><stop stop-opacity="1" stop-color="rgb(93.103027%, 54.978943%, 21.316528%)" offset="0.359375"/><stop stop-opacity="1" stop-color="rgb(92.904663%, 54.789734%, 21.131897%)" offset="0.375"/><stop stop-opacity="1" stop-color="rgb(92.707825%, 54.600525%, 20.94574%)" offset="0.390625"/><stop stop-opacity="1" stop-color="rgb(92.510986%, 54.40979%, 20.759583%)" offset="0.40625"/><stop stop-opacity="1" stop-color="rgb(92.312622%, 54.220581%, 20.574951%)" offset="0.421875"/><stop stop-opacity="1" stop-color="rgb(92.115784%, 54.031372%, 20.388794%)" offset="0.4375"/><stop stop-opacity="1" stop-color="rgb(91.917419%, 53.842163%, 20.202637%)" offset="0.453125"/><stop stop-opacity="1" stop-color="rgb(91.720581%, 53.651428%, 20.018005%)" offset="0.46875"/><stop stop-opacity="1" stop-color="rgb(91.523743%, 53.462219%, 19.831848%)" offset="0.484375"/><stop stop-opacity="1" stop-color="rgb(91.325378%, 53.27301%, 19.645691%)" offset="0.5"/><stop stop-opacity="1" stop-color="rgb(91.12854%, 53.083801%, 19.46106%)" offset="0.515625"/><stop stop-opacity="1" stop-color="rgb(90.930176%, 52.894592%, 19.274902%)" offset="0.53125"/><stop stop-opacity="1" stop-color="rgb(90.733337%, 52.703857%, 19.090271%)" offset="0.546875"/><stop stop-opacity="1" stop-color="rgb(90.536499%, 52.514648%, 18.904114%)" offset="0.5625"/><stop stop-opacity="1" stop-color="rgb(90.338135%, 52.325439%, 18.717957%)" offset="0.578125"/><stop stop-opacity="1" stop-color="rgb(90.141296%, 52.13623%, 18.533325%)" offset="0.59375"/><stop stop-opacity="1" stop-color="rgb(89.942932%, 51.945496%, 18.347168%)" offset="0.609375"/><stop stop-opacity="1" stop-color="rgb(89.746094%, 51.756287%, 18.161011%)" offset="0.625"/><stop stop-opacity="1" stop-color="rgb(89.549255%, 51.567078%, 17.976379%)" offset="0.640625"/><stop stop-opacity="1" stop-color="rgb(89.350891%, 51.377869%, 17.790222%)" offset="0.65625"/><stop stop-opacity="1" stop-color="rgb(89.154053%, 51.18866%, 17.604065%)" offset="0.671875"/><stop stop-opacity="1" stop-color="rgb(88.955688%, 50.997925%, 17.419434%)" offset="0.6875"/><stop stop-opacity="1" stop-color="rgb(88.75885%, 50.808716%, 17.233276%)" offset="0.703125"/><stop stop-opacity="1" stop-color="rgb(88.562012%, 50.619507%, 17.048645%)" offset="0.71875"/><stop stop-opacity="1" stop-color="rgb(88.363647%, 50.430298%, 16.862488%)" offset="0.734375"/><stop stop-opacity="1" stop-color="rgb(88.166809%, 50.239563%, 16.676331%)" offset="0.75"/><stop stop-opacity="1" stop-color="rgb(87.968445%, 50.050354%, 16.491699%)" offset="0.765625"/><stop stop-opacity="1" stop-color="rgb(87.771606%, 49.861145%, 16.305542%)" offset="0.78125"/><stop stop-opacity="1" stop-color="rgb(87.574768%, 49.671936%, 16.119385%)" offset="0.796875"/><stop stop-opacity="1" stop-color="rgb(87.376404%, 49.482727%, 15.934753%)" offset="0.8125"/><stop stop-opacity="1" stop-color="rgb(87.179565%, 49.291992%, 15.748596%)" offset="0.828125"/><stop stop-opacity="1" stop-color="rgb(86.981201%, 49.102783%, 15.562439%)" offset="0.84375"/><stop stop-opacity="1" stop-color="rgb(86.784363%, 48.913574%, 15.377808%)" offset="0.859375"/><stop stop-opacity="1" stop-color="rgb(86.587524%, 48.724365%, 15.19165%)" offset="0.875"/><stop stop-opacity="1" stop-color="rgb(86.38916%, 48.53363%, 15.007019%)" offset="0.890625"/><stop stop-opacity="1" stop-color="rgb(86.192322%, 48.344421%, 14.820862%)" offset="0.90625"/><stop stop-opacity="1" stop-color="rgb(85.993958%, 48.155212%, 14.634705%)" offset="0.921875"/><stop stop-opacity="1" stop-color="rgb(85.797119%, 47.966003%, 14.450073%)" offset="0.9375"/><stop stop-opacity="1" stop-color="rgb(85.600281%, 47.776794%, 14.263916%)" offset="0.953125"/><stop stop-opacity="1" stop-color="rgb(85.401917%, 47.58606%, 14.077759%)" offset="0.96875"/><stop stop-opacity="1" stop-color="rgb(85.205078%, 47.396851%, 13.893127%)" offset="0.984375"/><stop stop-opacity="1" stop-color="rgb(85.006714%, 47.207642%, 13.70697%)" offset="1"/></linearGradient><clipPath id="5fddc1438a"><path d="M 2 16 L 34 16 L 34 20 L 2 20 Z M 2 16 " clip-rule="nonzero"/></clipPath><clipPath id="68f87bbad3"><path d="M 31.863281 19.714844 L 4.136719 19.714844 C 3.328125 19.714844 2.675781 19.0625 2.675781 18.253906 C 2.675781 17.449219 3.328125 16.796875 4.136719 16.796875 L 31.863281 16.796875 C 32.671875 16.796875 33.324219 17.449219 33.324219 18.253906 C 33.324219 19.0625 32.671875 19.714844 31.863281 19.714844 Z M 31.863281 19.714844 " clip-rule="nonzero"/></clipPath><linearGradient x1="24" gradientTransform="matrix(0.72973, 0, 0, 0.72973, 0.486486, 0.00000194595)" y1="23.016999" x2="24" gradientUnits="userSpaceOnUse" y2="27.016999" id="0c60ff036e"><stop stop-opacity="1" stop-color="rgb(82.064819%, 44.598389%, 13.998413%)" offset="0"/><stop stop-opacity="1" stop-color="rgb(81.869507%, 44.459534%, 13.902283%)" offset="0.03125"/><stop stop-opacity="1" stop-color="rgb(81.480408%, 44.18335%, 13.711548%)" offset="0.0625"/><stop stop-opacity="1" stop-color="rgb(81.089783%, 43.907166%, 13.520813%)" offset="0.09375"/><stop stop-opacity="1" stop-color="rgb(80.700684%, 43.630981%, 13.328552%)" offset="0.125"/><stop stop-opacity="1" stop-color="rgb(80.311584%, 43.354797%, 13.137817%)" offset="0.15625"/><stop stop-opacity="1" stop-color="rgb(79.922485%, 43.078613%, 12.947083%)" offset="0.1875"/><stop stop-opacity="1" stop-color="rgb(79.533386%, 42.802429%, 12.754822%)" offset="0.21875"/><stop stop-opacity="1" stop-color="rgb(79.142761%, 42.526245%, 12.564087%)" offset="0.25"/><stop stop-opacity="1" stop-color="rgb(78.753662%, 42.250061%, 12.373352%)" offset="0.28125"/><stop stop-opacity="1" stop-color="rgb(78.395081%, 41.992188%, 12.190247%)" offset="0.3125"/><stop stop-opacity="1" stop-color="rgb(78.089905%, 41.76178%, 12.020874%)" offset="0.34375"/><stop stop-opacity="1" stop-color="rgb(77.804565%, 41.542053%, 11.857605%)" offset="0.375"/><stop stop-opacity="1" stop-color="rgb(77.520752%, 41.323853%, 11.695862%)" offset="0.40625"/><stop stop-opacity="1" stop-color="rgb(77.236938%, 41.105652%, 11.532593%)" offset="0.4375"/><stop stop-opacity="1" stop-color="rgb(76.951599%, 40.887451%, 11.369324%)" offset="0.46875"/><stop stop-opacity="1" stop-color="rgb(76.667786%, 40.667725%, 11.206055%)" offset="0.5"/><stop stop-opacity="1" stop-color="rgb(76.382446%, 40.449524%, 11.042786%)" offset="0.53125"/><stop stop-opacity="1" stop-color="rgb(76.098633%, 40.231323%, 10.879517%)" offset="0.5625"/><stop stop-opacity="1" stop-color="rgb(75.813293%, 40.013123%, 10.716248%)" offset="0.59375"/><stop stop-opacity="1" stop-color="rgb(75.52948%, 39.793396%, 10.554504%)" offset="0.625"/><stop stop-opacity="1" stop-color="rgb(75.245667%, 39.575195%, 10.391235%)" offset="0.65625"/><stop stop-opacity="1" stop-color="rgb(74.960327%, 39.356995%, 10.227966%)" offset="0.6875"/><stop stop-opacity="1" stop-color="rgb(74.676514%, 39.138794%, 10.064697%)" offset="0.71875"/><stop stop-opacity="1" stop-color="rgb(74.391174%, 38.920593%, 9.901428%)" offset="0.75"/><stop stop-opacity="1" stop-color="rgb(74.107361%, 38.700867%, 9.738159%)" offset="0.78125"/><stop stop-opacity="1" stop-color="rgb(73.822021%, 38.482666%, 9.576416%)" offset="0.8125"/><stop stop-opacity="1" stop-color="rgb(73.538208%, 38.264465%, 9.413147%)" offset="0.84375"/><stop stop-opacity="1" stop-color="rgb(73.254395%, 38.046265%, 9.249878%)" offset="0.875"/><stop stop-opacity="1" stop-color="rgb(72.969055%, 37.826538%, 9.086609%)" offset="0.90625"/><stop stop-opacity="1" stop-color="rgb(72.685242%, 37.608337%, 8.92334%)" offset="0.9375"/><stop stop-opacity="1" stop-color="rgb(72.399902%, 37.390137%, 8.760071%)" offset="0.96875"/><stop stop-opacity="1" stop-color="rgb(72.116089%, 37.171936%, 8.596802%)" offset="1"/></linearGradient><clipPath id="97491b9dd5"><path d="M 5 21 L 31 21 L 31 31 L 5 31 Z M 5 21 " clip-rule="nonzero"/></clipPath><clipPath id="a15b24e217"><path d="M 19.09375 23.363281 L 16.90625 23.363281 C 16.300781 23.363281 15.8125 22.875 15.8125 22.269531 C 15.8125 21.664062 16.300781 21.175781 16.90625 21.175781 L 19.09375 21.175781 C 19.699219 21.175781 20.1875 21.664062 20.1875 22.269531 C 20.1875 22.875 19.699219 23.363281 19.09375 23.363281 Z M 14.351562 22.269531 C 14.351562 21.664062 13.859375 21.175781 13.257812 21.175781 L 11.066406 21.175781 C 10.464844 21.175781 9.972656 21.664062 9.972656 22.269531 C 9.972656 22.875 10.464844 23.363281 11.066406 23.363281 L 13.257812 23.363281 C 13.859375 23.363281 14.351562 22.875 14.351562 22.269531 Z M 8.511719 22.269531 C 8.511719 21.664062 8.023438 21.175781 7.417969 21.175781 L 6.6875 21.175781 C 6.085938 21.175781 5.59375 21.664062 5.59375 22.269531 C 5.59375 22.875 6.085938 23.363281 6.6875 23.363281 L 7.417969 23.363281 C 8.023438 23.363281 8.511719 22.875 8.511719 22.269531 Z M 30.40625 22.269531 C 30.40625 21.664062 29.914062 21.175781 29.3125 21.175781 L 28.582031 21.175781 C 27.976562 21.175781 27.488281 21.664062 27.488281 22.269531 C 27.488281 22.875 27.976562 23.363281 28.582031 23.363281 L 29.3125 23.363281 C 29.914062 23.363281 30.40625 22.875 30.40625 22.269531 Z M 26.027344 22.269531 C 26.027344 21.664062 25.535156 21.175781 24.933594 21.175781 L 22.742188 21.175781 C 22.140625 21.175781 21.648438 21.664062 21.648438 22.269531 C 21.648438 22.875 22.140625 23.363281 22.742188 23.363281 L 24.933594 23.363281 C 25.535156 23.363281 26.027344 22.875 26.027344 22.269531 Z M 20.1875 29.566406 C 20.1875 28.960938 19.699219 28.472656 19.09375 28.472656 L 16.90625 28.472656 C 16.300781 28.472656 15.8125 28.960938 15.8125 29.566406 C 15.8125 30.171875 16.300781 30.660156 16.90625 30.660156 L 19.09375 30.660156 C 19.699219 30.660156 20.1875 30.171875 20.1875 29.566406 Z M 14.351562 29.566406 C 14.351562 28.960938 13.859375 28.472656 13.257812 28.472656 L 11.066406 28.472656 C 10.464844 28.472656 9.972656 28.960938 9.972656 29.566406 C 9.972656 30.171875 10.464844 30.660156 11.066406 30.660156 L 13.257812 30.660156 C 13.859375 30.660156 14.351562 30.171875 14.351562 29.566406 Z M 26.027344 29.566406 C 26.027344 28.960938 25.535156 28.472656 24.933594 28.472656 L 22.742188 28.472656 C 22.140625 28.472656 21.648438 28.960938 21.648438 29.566406 C 21.648438 30.171875 22.140625 30.660156 22.742188 30.660156 L 24.933594 30.660156 C 25.535156 30.660156 26.027344 30.171875 26.027344 29.566406 Z M 17.269531 25.917969 C 17.269531 25.3125 16.78125 24.824219 16.175781 24.824219 L 13.988281 24.824219 C 13.382812 24.824219 12.890625 25.3125 12.890625 25.917969 C 12.890625 26.523438 13.382812 27.011719 13.988281 27.011719 L 16.175781 27.011719 C 16.78125 27.011719 17.269531 26.523438 17.269531 25.917969 Z M 23.109375 25.917969 C 23.109375 25.3125 22.617188 24.824219 22.011719 24.824219 L 19.824219 24.824219 C 19.21875 24.824219 18.730469 25.3125 18.730469 25.917969 C 18.730469 26.523438 19.21875 27.011719 19.824219 27.011719 L 22.011719 27.011719 C 22.617188 27.011719 23.109375 26.523438 23.109375 25.917969 Z M 11.433594 25.917969 C 11.433594 25.3125 10.941406 24.824219 10.335938 24.824219 L 8.148438 24.824219 C 7.542969 24.824219 7.054688 25.3125 7.054688 25.917969 C 7.054688 26.523438 7.542969 27.011719 8.148438 27.011719 L 10.335938 27.011719 C 10.941406 27.011719 11.433594 26.523438 11.433594 25.917969 Z M 28.945312 25.917969 C 28.945312 25.3125 28.457031 24.824219 27.851562 24.824219 L 25.664062 24.824219 C 25.058594 24.824219 24.566406 25.3125 24.566406 25.917969 C 24.566406 26.523438 25.058594 27.011719 25.664062 27.011719 L 27.851562 27.011719 C 28.457031 27.011719 28.945312 26.523438 28.945312 25.917969 Z M 28.945312 25.917969 " clip-rule="nonzero"/></clipPath><linearGradient x1="24" gradientTransform="matrix(0.72973, 0, 0, 0.72973, 0.486486, 0.00000194595)" y1="29.016997" x2="24" gradientUnits="userSpaceOnUse" y2="42.016996" id="432d696696"><stop stop-opacity="1" stop-color="rgb(76.733398%, 40.719604%, 11.244202%)" offset="0"/><stop stop-opacity="1" stop-color="rgb(76.571655%, 40.596008%, 11.151123%)" offset="0.03125"/><stop stop-opacity="1" stop-color="rgb(76.249695%, 40.348816%, 10.966492%)" offset="0.0625"/><stop stop-opacity="1" stop-color="rgb(75.927734%, 40.101624%, 10.783386%)" offset="0.09375"/><stop stop-opacity="1" stop-color="rgb(75.605774%, 39.854431%, 10.598755%)" offset="0.125"/><stop stop-opacity="1" stop-color="rgb(75.285339%, 39.607239%, 10.414124%)" offset="0.15625"/><stop stop-opacity="1" stop-color="rgb(74.963379%, 39.360046%, 10.229492%)" offset="0.1875"/><stop stop-opacity="1" stop-color="rgb(74.641418%, 39.112854%, 10.044861%)" offset="0.21875"/><stop stop-opacity="1" stop-color="rgb(74.319458%, 38.865662%, 9.860229%)" offset="0.25"/><stop stop-opacity="1" stop-color="rgb(73.997498%, 38.618469%, 9.675598%)" offset="0.28125"/><stop stop-opacity="1" stop-color="rgb(73.675537%, 38.371277%, 9.492493%)" offset="0.3125"/><stop stop-opacity="1" stop-color="rgb(73.355103%, 38.124084%, 9.307861%)" offset="0.34375"/><stop stop-opacity="1" stop-color="rgb(73.033142%, 37.876892%, 9.12323%)" offset="0.375"/><stop stop-opacity="1" stop-color="rgb(72.711182%, 37.6297%, 8.938599%)" offset="0.40625"/><stop stop-opacity="1" stop-color="rgb(72.389221%, 37.382507%, 8.753967%)" offset="0.4375"/><stop stop-opacity="1" stop-color="rgb(72.067261%, 37.135315%, 8.569336%)" offset="0.46875"/><stop stop-opacity="1" stop-color="rgb(71.7453%, 36.888123%, 8.384705%)" offset="0.5"/><stop stop-opacity="1" stop-color="rgb(71.42334%, 36.64093%, 8.201599%)" offset="0.53125"/><stop stop-opacity="1" stop-color="rgb(71.102905%, 36.393738%, 8.016968%)" offset="0.5625"/><stop stop-opacity="1" stop-color="rgb(70.780945%, 36.146545%, 7.832336%)" offset="0.59375"/><stop stop-opacity="1" stop-color="rgb(70.458984%, 35.899353%, 7.647705%)" offset="0.625"/><stop stop-opacity="1" stop-color="rgb(70.170593%, 35.682678%, 7.487488%)" offset="0.65625"/><stop stop-opacity="1" stop-color="rgb(69.93103%, 35.510254%, 7.362366%)" offset="0.6875"/><stop stop-opacity="1" stop-color="rgb(69.708252%, 35.351562%, 7.249451%)" offset="0.71875"/><stop stop-opacity="1" stop-color="rgb(69.483948%, 35.192871%, 7.13501%)" offset="0.75"/><stop stop-opacity="1" stop-color="rgb(69.259644%, 35.032654%, 7.020569%)" offset="0.78125"/><stop stop-opacity="1" stop-color="rgb(69.035339%, 34.873962%, 6.906128%)" offset="0.8125"/><stop stop-opacity="1" stop-color="rgb(68.811035%, 34.715271%, 6.793213%)" offset="0.84375"/><stop stop-opacity="1" stop-color="rgb(68.588257%, 34.55658%, 6.678772%)" offset="0.875"/><stop stop-opacity="1" stop-color="rgb(68.363953%, 34.397888%, 6.564331%)" offset="0.90625"/><stop stop-opacity="1" stop-color="rgb(68.139648%, 34.239197%, 6.44989%)" offset="0.9375"/><stop stop-opacity="1" stop-color="rgb(67.915344%, 34.080505%, 6.336975%)" offset="0.96875"/><stop stop-opacity="1" stop-color="rgb(67.69104%, 33.921814%, 6.222534%)" offset="1"/></linearGradient></defs><path fill="#e23030" d="M 27.734375 13.773438 C 27.234375 12.859375 26.25 13.0625 25.980469 13.269531 C 25.789062 13.414062 25.609375 13.390625 25.414062 13.269531 C 25.101562 13.078125 24.074219 12.886719 23.65625 13.773438 C 23.160156 14.84375 23.734375 16.964844 24.835938 16.964844 C 24.835938 16.964844 25.113281 17.027344 25.566406 16.734375 C 25.644531 16.679688 25.75 16.6875 25.828125 16.734375 C 26.28125 17.023438 26.648438 16.964844 26.648438 16.964844 C 27.558594 16.960938 28.304688 14.8125 27.734375 13.773438 Z M 27.734375 13.773438 " fill-opacity="1" fill-rule="nonzero"/><path fill="#2ecc71" d="M 26.636719 11.542969 C 26.636719 11.542969 25.46875 11.445312 25.722656 12.691406 C 25.722656 12.691406 26.804688 12.882812 26.636719 11.542969 Z M 26.636719 11.542969 " fill-opacity="1" fill-rule="nonzero"/><path fill="#211f1e" d="M 27.90625 13.679688 C 27.535156 13 26.945312 12.898438 26.625 12.898438 C 26.351562 12.898438 26.074219 12.972656 25.898438 13.09375 L 25.898438 12.894531 C 26.082031 12.890625 26.378906 12.835938 26.597656 12.589844 C 26.808594 12.351562 26.890625 11.992188 26.828125 11.519531 C 26.816406 11.429688 26.746094 11.359375 26.652344 11.351562 C 26.652344 11.351562 26.625 11.347656 26.582031 11.347656 C 26.40625 11.347656 25.972656 11.382812 25.703125 11.710938 C 25.523438 11.933594 25.457031 12.230469 25.511719 12.605469 L 25.511719 13.101562 C 25.367188 13.015625 25.078125 12.914062 24.734375 12.914062 C 24.160156 12.914062 23.714844 13.191406 23.480469 13.691406 C 23.132812 14.4375 23.257812 15.679688 23.753906 16.457031 C 24.039062 16.90625 24.410156 17.148438 24.820312 17.15625 C 24.839844 17.160156 24.871094 17.160156 24.910156 17.160156 C 25.039062 17.160156 25.3125 17.128906 25.671875 16.894531 C 25.691406 16.878906 25.710938 16.886719 25.722656 16.894531 C 26.085938 17.125 26.402344 17.160156 26.5625 17.160156 C 26.609375 17.160156 26.644531 17.15625 26.664062 17.15625 C 27.027344 17.148438 27.378906 16.886719 27.660156 16.414062 C 28.105469 15.664062 28.320312 14.4375 27.90625 13.679688 Z M 26.003906 11.957031 C 26.125 11.808594 26.324219 11.757812 26.460938 11.742188 C 26.46875 12.007812 26.417969 12.207031 26.308594 12.335938 C 26.191406 12.46875 26.019531 12.503906 25.890625 12.507812 C 25.859375 12.269531 25.898438 12.082031 26.003906 11.957031 Z M 27.328125 16.214844 C 27.117188 16.566406 26.871094 16.769531 26.652344 16.769531 C 26.640625 16.769531 26.628906 16.769531 26.621094 16.769531 C 26.617188 16.769531 26.59375 16.773438 26.5625 16.773438 C 26.445312 16.773438 26.210938 16.746094 25.933594 16.566406 C 25.792969 16.480469 25.601562 16.476562 25.460938 16.566406 C 25.175781 16.753906 24.980469 16.773438 24.910156 16.773438 C 24.894531 16.773438 24.882812 16.773438 24.882812 16.773438 C 24.867188 16.769531 24.851562 16.769531 24.835938 16.769531 C 24.484375 16.769531 24.230469 16.484375 24.082031 16.25 C 23.652344 15.578125 23.539062 14.484375 23.832031 13.855469 C 24.046875 13.398438 24.441406 13.304688 24.734375 13.304688 C 24.984375 13.304688 25.207031 13.371094 25.3125 13.4375 C 25.601562 13.613281 25.863281 13.605469 26.097656 13.425781 C 26.167969 13.371094 26.367188 13.289062 26.625 13.289062 C 26.910156 13.289062 27.304688 13.390625 27.566406 13.867188 C 27.910156 14.492188 27.707031 15.574219 27.328125 16.214844 Z M 27.328125 16.214844 " fill-opacity="1" fill-rule="nonzero"/><path fill="#ffffff" d="M 27.285156 14.816406 C 27.230469 14.816406 27.1875 14.777344 27.1875 14.722656 C 27.183594 14.339844 27.085938 14.078125 26.902344 13.945312 C 26.671875 13.773438 26.367188 13.863281 26.367188 13.863281 C 26.3125 13.878906 26.261719 13.851562 26.246094 13.800781 C 26.230469 13.75 26.257812 13.695312 26.308594 13.679688 C 26.324219 13.675781 26.707031 13.5625 27.019531 13.789062 C 27.253906 13.960938 27.375 14.273438 27.382812 14.71875 C 27.382812 14.773438 27.339844 14.816406 27.285156 14.816406 Z M 27.285156 14.816406 " fill-opacity="1" fill-rule="nonzero"/><g clip-path="url(#76eef6e5d2)"><g clip-path="url(#7479703985)"><g clip-path="url(#a6edd2d973)"><g clip-path="url(#9361cf70b0)"><path fill="#e23030" d="M 25.203125 16.542969 C 25.105469 15.503906 24.117188 15.300781 23.789062 15.382812 C 23.558594 15.441406 23.402344 15.351562 23.269531 15.160156 C 23.058594 14.859375 22.1875 14.277344 21.457031 14.929688 C 20.574219 15.714844 20.265625 17.890625 21.277344 18.328125 C 21.277344 18.328125 21.507812 18.492188 22.039062 18.402344 C 22.132812 18.386719 22.230469 18.433594 22.277344 18.507812 C 22.582031 18.953125 22.941406 19.042969 22.941406 19.042969 C 23.777344 19.402344 25.3125 17.722656 25.203125 16.542969 Z M 25.203125 16.542969 " fill-opacity="1" fill-rule="nonzero"/></g></g></g></g><g clip-path="url(#549000045b)"><g clip-path="url(#5af1ce209e)"><g clip-path="url(#5d048b8983)"><g clip-path="url(#146c4c3cb2)"><path fill="#2ecc71" d="M 25.074219 14.058594 C 25.074219 14.058594 24.039062 13.507812 23.78125 14.753906 C 23.78125 14.753906 24.699219 15.351562 25.074219 14.058594 Z M 25.074219 14.058594 " fill-opacity="1" fill-rule="nonzero"/></g></g></g></g><g clip-path="url(#9b1022458a)"><g clip-path="url(#bfe85272da)"><g clip-path="url(#07036fc5c9)"><g clip-path="url(#55d150d5b4)"><path fill="#211f1e" d="M 25.394531 16.523438 C 25.324219 15.753906 24.820312 15.425781 24.527344 15.300781 C 24.277344 15.191406 23.992188 15.152344 23.785156 15.1875 L 23.863281 15.007812 C 24.035156 15.074219 24.328125 15.144531 24.625 15.003906 C 24.914062 14.867188 25.128906 14.570312 25.261719 14.113281 C 25.285156 14.027344 25.246094 13.933594 25.167969 13.886719 C 25.167969 13.886719 25.144531 13.875 25.101562 13.859375 C 24.941406 13.789062 24.527344 13.648438 24.148438 13.84375 C 23.898438 13.976562 23.71875 14.226562 23.621094 14.585938 L 23.425781 15.046875 C 23.328125 14.910156 23.101562 14.703125 22.785156 14.566406 C 22.257812 14.339844 21.742188 14.417969 21.328125 14.785156 C 20.714844 15.332031 20.335938 16.519531 20.484375 17.433594 C 20.570312 17.960938 20.8125 18.328125 21.1875 18.496094 C 21.203125 18.507812 21.230469 18.519531 21.265625 18.535156 C 21.386719 18.585938 21.652344 18.664062 22.074219 18.59375 C 22.097656 18.589844 22.113281 18.601562 22.121094 18.613281 C 22.359375 18.96875 22.640625 19.125 22.785156 19.1875 C 22.828125 19.207031 22.863281 19.21875 22.882812 19.226562 C 23.21875 19.363281 23.644531 19.261719 24.089844 18.9375 C 24.796875 18.421875 25.476562 17.382812 25.394531 16.523438 Z M 24.328125 14.1875 C 24.5 14.101562 24.703125 14.132812 24.835938 14.171875 C 24.738281 14.421875 24.613281 14.582031 24.460938 14.65625 C 24.300781 14.730469 24.128906 14.699219 24.007812 14.652344 C 24.074219 14.417969 24.183594 14.261719 24.328125 14.1875 Z M 23.863281 18.625 C 23.53125 18.863281 23.226562 18.949219 23.023438 18.863281 C 23.015625 18.859375 23.003906 18.855469 22.996094 18.855469 C 22.988281 18.851562 22.96875 18.847656 22.9375 18.832031 C 22.832031 18.789062 22.625 18.671875 22.441406 18.394531 C 22.347656 18.257812 22.171875 18.183594 22.007812 18.210938 C 21.671875 18.265625 21.484375 18.207031 21.421875 18.179688 C 21.40625 18.175781 21.398438 18.167969 21.394531 18.167969 C 21.382812 18.160156 21.371094 18.152344 21.355469 18.148438 C 21.035156 18.007812 20.914062 17.648438 20.867188 17.375 C 20.738281 16.585938 21.066406 15.535156 21.585938 15.074219 C 21.964844 14.738281 22.363281 14.808594 22.632812 14.921875 C 22.859375 15.019531 23.039062 15.171875 23.109375 15.273438 C 23.304688 15.550781 23.546875 15.648438 23.835938 15.574219 C 23.921875 15.550781 24.136719 15.554688 24.375 15.65625 C 24.636719 15.769531 24.957031 16.019531 25.007812 16.5625 C 25.078125 17.269531 24.464844 18.183594 23.863281 18.625 Z M 23.863281 18.625 " fill-opacity="1" fill-rule="nonzero"/></g></g></g></g><g clip-path="url(#5d469b72bf)"><g clip-path="url(#88407ed66f)"><g clip-path="url(#7d23e70a76)"><g clip-path="url(#3dceb58c6b)"><path fill="#ffffff" d="M 24.375 17.324219 C 24.328125 17.300781 24.304688 17.246094 24.324219 17.195312 C 24.46875 16.84375 24.484375 16.566406 24.371094 16.371094 C 24.222656 16.121094 23.910156 16.082031 23.910156 16.085938 C 23.855469 16.078125 23.816406 16.03125 23.824219 15.976562 C 23.828125 15.921875 23.875 15.886719 23.929688 15.890625 C 23.945312 15.894531 24.34375 15.941406 24.539062 16.273438 C 24.683594 16.523438 24.675781 16.859375 24.503906 17.269531 C 24.484375 17.320312 24.425781 17.34375 24.375 17.324219 Z M 24.375 17.324219 " fill-opacity="1" fill-rule="nonzero"/></g></g></g></g><path fill="#e23030" d="M 21.65625 14.535156 C 21.15625 13.621094 20.167969 13.824219 19.902344 14.03125 C 19.710938 14.175781 19.53125 14.152344 19.335938 14.03125 C 19.023438 13.839844 17.996094 13.648438 17.578125 14.535156 C 17.078125 15.605469 17.65625 17.726562 18.757812 17.726562 C 18.757812 17.726562 19.035156 17.789062 19.488281 17.496094 C 19.566406 17.441406 19.671875 17.449219 19.746094 17.496094 C 20.203125 17.785156 20.570312 17.726562 20.570312 17.726562 C 21.480469 17.722656 22.222656 15.574219 21.65625 14.535156 Z M 21.65625 14.535156 " fill-opacity="1" fill-rule="nonzero"/><path fill="#2ecc71" d="M 20.558594 12.300781 C 20.558594 12.300781 19.390625 12.207031 19.644531 13.453125 C 19.644531 13.453125 20.726562 13.640625 20.558594 12.300781 Z M 20.558594 12.300781 " fill-opacity="1" fill-rule="nonzero"/><path fill="#211f1e" d="M 21.828125 14.441406 C 21.457031 13.761719 20.867188 13.660156 20.546875 13.660156 C 20.273438 13.660156 19.996094 13.734375 19.820312 13.851562 L 19.820312 13.65625 C 20.003906 13.652344 20.300781 13.597656 20.519531 13.351562 C 20.730469 13.113281 20.8125 12.75 20.75 12.28125 C 20.738281 12.191406 20.664062 12.121094 20.574219 12.113281 C 20.574219 12.113281 20.546875 12.109375 20.503906 12.109375 C 20.328125 12.109375 19.894531 12.144531 19.625 12.472656 C 19.445312 12.695312 19.378906 12.992188 19.433594 13.367188 L 19.433594 13.863281 C 19.289062 13.777344 19 13.675781 18.65625 13.675781 C 18.082031 13.675781 17.636719 13.953125 17.402344 14.453125 C 17.054688 15.199219 17.179688 16.4375 17.675781 17.21875 C 17.960938 17.667969 18.332031 17.910156 18.742188 17.917969 C 18.761719 17.921875 18.792969 17.921875 18.832031 17.921875 C 18.960938 17.921875 19.234375 17.886719 19.59375 17.65625 C 19.613281 17.640625 19.632812 17.648438 19.644531 17.65625 C 20.003906 17.886719 20.324219 17.921875 20.484375 17.921875 C 20.53125 17.921875 20.566406 17.917969 20.585938 17.917969 C 20.949219 17.910156 21.300781 17.648438 21.582031 17.175781 C 22.027344 16.425781 22.242188 15.199219 21.828125 14.441406 Z M 19.925781 12.71875 C 20.046875 12.570312 20.246094 12.519531 20.382812 12.503906 C 20.390625 12.769531 20.339844 12.96875 20.230469 13.097656 C 20.113281 13.230469 19.941406 13.265625 19.8125 13.269531 C 19.78125 13.03125 19.820312 12.84375 19.925781 12.71875 Z M 21.25 16.976562 C 21.039062 17.328125 20.792969 17.53125 20.574219 17.53125 C 20.5625 17.53125 20.550781 17.53125 20.542969 17.53125 C 20.535156 17.53125 20.515625 17.535156 20.484375 17.535156 C 20.367188 17.535156 20.132812 17.507812 19.855469 17.328125 C 19.714844 17.242188 19.523438 17.238281 19.382812 17.328125 C 19.097656 17.515625 18.902344 17.535156 18.832031 17.535156 C 18.816406 17.535156 18.804688 17.535156 18.804688 17.535156 C 18.789062 17.53125 18.773438 17.53125 18.757812 17.53125 C 18.40625 17.53125 18.152344 17.246094 18.003906 17.011719 C 17.574219 16.339844 17.460938 15.246094 17.753906 14.617188 C 17.96875 14.160156 18.363281 14.0625 18.65625 14.0625 C 18.902344 14.0625 19.128906 14.132812 19.234375 14.199219 C 19.523438 14.375 19.785156 14.367188 20.019531 14.1875 C 20.089844 14.132812 20.289062 14.050781 20.546875 14.050781 C 20.832031 14.050781 21.226562 14.152344 21.488281 14.628906 C 21.828125 15.253906 21.628906 16.335938 21.25 16.976562 Z M 21.25 16.976562 " fill-opacity="1" fill-rule="nonzero"/><path fill="#ffffff" d="M 21.207031 15.578125 C 21.152344 15.578125 21.109375 15.539062 21.109375 15.484375 C 21.105469 15.101562 21.007812 14.839844 20.824219 14.707031 C 20.589844 14.535156 20.289062 14.625 20.289062 14.625 C 20.234375 14.640625 20.183594 14.613281 20.167969 14.5625 C 20.152344 14.511719 20.179688 14.457031 20.230469 14.441406 C 20.246094 14.4375 20.628906 14.324219 20.941406 14.550781 C 21.175781 14.722656 21.296875 15.035156 21.304688 15.480469 C 21.304688 15.535156 21.261719 15.578125 21.207031 15.578125 Z M 21.207031 15.578125 " fill-opacity="1" fill-rule="nonzero"/><g clip-path="url(#3f4715d01e)"><g clip-path="url(#40cb9a4a52)"><g clip-path="url(#94920ec75d)"><g clip-path="url(#48815f5a37)"><path fill="#e23030" d="M 18.9375 14.917969 C 18.328125 14.074219 17.375 14.394531 17.132812 14.632812 C 16.960938 14.800781 16.78125 14.796875 16.570312 14.703125 C 16.238281 14.550781 15.195312 14.484375 14.890625 15.414062 C 14.523438 16.539062 15.351562 18.574219 16.445312 18.4375 C 16.445312 18.4375 16.726562 18.46875 17.140625 18.121094 C 17.214844 18.058594 17.320312 18.050781 17.402344 18.089844 C 17.886719 18.324219 18.246094 18.21875 18.246094 18.21875 C 19.148438 18.105469 19.625 15.882812 18.9375 14.917969 Z M 18.9375 14.917969 " fill-opacity="1" fill-rule="nonzero"/></g></g></g></g><g clip-path="url(#46d32ca92c)"><g clip-path="url(#e3f5c858f9)"><g clip-path="url(#ce56d180f8)"><g clip-path="url(#e9ea675a70)"><path fill="#2ecc71" d="M 17.574219 12.835938 C 17.574219 12.835938 16.402344 12.882812 16.804688 14.089844 C 16.804688 14.089844 17.902344 14.148438 17.574219 12.835938 Z M 17.574219 12.835938 " fill-opacity="1" fill-rule="nonzero"/></g></g></g></g><g clip-path="url(#497926d31d)"><g clip-path="url(#9d9383f0d5)"><g clip-path="url(#2e0cdbe0c4)"><g clip-path="url(#a99ffa8493)"><path fill="#211f1e" d="M 19.09375 14.808594 C 18.644531 14.179688 18.046875 14.148438 17.726562 14.1875 C 17.457031 14.222656 17.191406 14.328125 17.03125 14.464844 L 17.007812 14.269531 C 17.1875 14.242188 17.476562 14.152344 17.664062 13.882812 C 17.847656 13.621094 17.878906 13.253906 17.765625 12.792969 C 17.742188 12.703125 17.660156 12.644531 17.566406 12.644531 C 17.566406 12.644531 17.542969 12.648438 17.496094 12.652344 C 17.324219 12.671875 16.894531 12.761719 16.667969 13.121094 C 16.515625 13.359375 16.488281 13.667969 16.585938 14.027344 L 16.648438 14.523438 C 16.492188 14.453125 16.195312 14.390625 15.855469 14.429688 C 15.285156 14.5 14.875 14.828125 14.707031 15.355469 C 14.449219 16.136719 14.722656 17.355469 15.3125 18.070312 C 15.648438 18.480469 16.046875 18.671875 16.453125 18.628906 C 16.472656 18.632812 16.503906 18.628906 16.542969 18.625 C 16.671875 18.609375 16.9375 18.542969 17.265625 18.269531 C 17.285156 18.25 17.304688 18.257812 17.316406 18.261719 C 17.703125 18.449219 18.027344 18.445312 18.183594 18.425781 C 18.230469 18.417969 18.265625 18.410156 18.285156 18.40625 C 18.644531 18.355469 18.960938 18.050781 19.183594 17.550781 C 19.535156 16.75 19.597656 15.507812 19.09375 14.808594 Z M 16.996094 13.328125 C 17.101562 13.164062 17.292969 13.089844 17.425781 13.058594 C 17.46875 13.324219 17.441406 13.527344 17.34375 13.664062 C 17.246094 13.808594 17.082031 13.867188 16.949219 13.890625 C 16.894531 13.652344 16.910156 13.464844 16.996094 13.328125 Z M 18.828125 17.394531 C 18.664062 17.765625 18.441406 17.996094 18.222656 18.023438 C 18.214844 18.023438 18.203125 18.027344 18.195312 18.027344 C 18.1875 18.03125 18.167969 18.035156 18.136719 18.039062 C 18.019531 18.054688 17.785156 18.054688 17.488281 17.914062 C 17.335938 17.839844 17.144531 17.863281 17.019531 17.96875 C 16.757812 18.1875 16.566406 18.230469 16.496094 18.242188 C 16.480469 18.242188 16.46875 18.242188 16.46875 18.242188 C 16.453125 18.242188 16.4375 18.242188 16.425781 18.242188 C 16.074219 18.285156 15.789062 18.039062 15.609375 17.824219 C 15.105469 17.207031 14.859375 16.132812 15.074219 15.476562 C 15.230469 14.996094 15.613281 14.851562 15.902344 14.816406 C 16.148438 14.785156 16.378906 14.828125 16.492188 14.878906 C 16.800781 15.019531 17.054688 14.980469 17.269531 14.773438 C 17.332031 14.710938 17.519531 14.605469 17.773438 14.574219 C 18.058594 14.539062 18.460938 14.589844 18.78125 15.035156 C 19.195312 15.613281 19.128906 16.707031 18.828125 17.394531 Z M 18.828125 17.394531 " fill-opacity="1" fill-rule="nonzero"/></g></g></g></g><g clip-path="url(#22c7e303e8)"><g clip-path="url(#cef94bac92)"><g clip-path="url(#8c748aa478)"><g clip-path="url(#ffc3f99412)"><path fill="#ffffff" d="M 18.613281 16.011719 C 18.5625 16.019531 18.515625 15.980469 18.507812 15.929688 C 18.457031 15.550781 18.328125 15.300781 18.132812 15.191406 C 17.878906 15.050781 17.589844 15.175781 17.589844 15.175781 C 17.539062 15.199219 17.484375 15.175781 17.460938 15.125 C 17.4375 15.078125 17.460938 15.019531 17.511719 15 C 17.527344 14.992188 17.890625 14.832031 18.226562 15.023438 C 18.480469 15.164062 18.640625 15.460938 18.699219 15.902344 C 18.707031 15.953125 18.667969 16.003906 18.613281 16.011719 C 18.617188 16.011719 18.617188 16.011719 18.613281 16.011719 Z M 18.613281 16.011719 " fill-opacity="1" fill-rule="nonzero"/></g></g></g></g><g clip-path="url(#15a0a648f3)"><g clip-path="url(#45c2e5387e)"><g clip-path="url(#6bb6651359)"><g clip-path="url(#513067af86)"><path fill="#e23030" d="M 12.476562 15.726562 C 12.359375 14.492188 11.1875 14.253906 10.796875 14.351562 C 10.519531 14.421875 10.335938 14.3125 10.175781 14.085938 C 9.925781 13.730469 8.894531 13.042969 8.027344 13.816406 C 6.980469 14.75 6.613281 17.332031 7.816406 17.847656 C 7.816406 17.847656 8.089844 18.046875 8.722656 17.9375 C 8.832031 17.917969 8.945312 17.972656 9.003906 18.0625 C 9.363281 18.589844 9.792969 18.699219 9.792969 18.699219 C 10.785156 19.121094 12.609375 17.125 12.476562 15.726562 Z M 12.476562 15.726562 " fill-opacity="1" fill-rule="nonzero"/></g></g></g></g><g clip-path="url(#6b47169769)"><g clip-path="url(#653cd14647)"><g clip-path="url(#ced99624bc)"><g clip-path="url(#fd710fc166)"><path fill="#2ecc71" d="M 12.324219 12.773438 C 12.324219 12.773438 11.09375 12.125 10.785156 13.601562 C 10.785156 13.601562 11.878906 14.316406 12.324219 12.773438 Z M 12.324219 12.773438 " fill-opacity="1" fill-rule="nonzero"/></g></g></g></g><g clip-path="url(#adc4080345)"><g clip-path="url(#b44ca452c1)"><g clip-path="url(#32497f59c0)"><g clip-path="url(#4781b84c4d)"><path fill="#211f1e" d="M 12.707031 15.707031 C 12.617188 14.789062 12.019531 14.402344 11.671875 14.253906 C 11.375 14.125 11.039062 14.074219 10.789062 14.121094 L 10.882812 13.90625 C 11.085938 13.984375 11.4375 14.070312 11.789062 13.902344 C 12.132812 13.738281 12.386719 13.382812 12.542969 12.84375 C 12.574219 12.738281 12.527344 12.625 12.429688 12.574219 C 12.429688 12.574219 12.402344 12.558594 12.351562 12.539062 C 12.164062 12.457031 11.671875 12.292969 11.222656 12.523438 C 10.921875 12.679688 10.714844 12.976562 10.597656 13.40625 L 10.363281 13.953125 C 10.246094 13.789062 9.980469 13.542969 9.605469 13.382812 C 8.980469 13.113281 8.363281 13.207031 7.871094 13.644531 C 7.144531 14.292969 6.695312 15.703125 6.875 16.789062 C 6.976562 17.414062 7.265625 17.851562 7.710938 18.050781 C 7.730469 18.0625 7.761719 18.078125 7.804688 18.097656 C 7.945312 18.160156 8.261719 18.25 8.761719 18.164062 C 8.792969 18.160156 8.808594 18.175781 8.816406 18.1875 C 9.101562 18.609375 9.433594 18.796875 9.609375 18.871094 C 9.660156 18.894531 9.699219 18.90625 9.722656 18.914062 C 10.121094 19.078125 10.628906 18.957031 11.15625 18.574219 C 11.996094 17.960938 12.800781 16.722656 12.707031 15.707031 Z M 11.4375 12.933594 C 11.640625 12.828125 11.878906 12.867188 12.035156 12.914062 C 11.921875 13.207031 11.773438 13.402344 11.59375 13.488281 C 11.402344 13.574219 11.199219 13.535156 11.054688 13.480469 C 11.136719 13.207031 11.265625 13.019531 11.4375 12.933594 Z M 10.886719 18.199219 C 10.492188 18.484375 10.128906 18.589844 9.890625 18.484375 C 9.878906 18.480469 9.867188 18.476562 9.855469 18.472656 C 9.847656 18.472656 9.824219 18.464844 9.789062 18.449219 C 9.664062 18.394531 9.417969 18.257812 9.199219 17.929688 C 9.089844 17.769531 8.878906 17.675781 8.683594 17.710938 C 8.285156 17.777344 8.0625 17.707031 7.988281 17.675781 C 7.96875 17.667969 7.957031 17.660156 7.957031 17.660156 C 7.941406 17.648438 7.925781 17.640625 7.910156 17.636719 C 7.527344 17.46875 7.382812 17.042969 7.328125 16.71875 C 7.175781 15.785156 7.566406 14.535156 8.179688 13.988281 C 8.628906 13.589844 9.105469 13.667969 9.425781 13.808594 C 9.691406 13.921875 9.90625 14.101562 9.988281 14.222656 C 10.222656 14.550781 10.511719 14.664062 10.851562 14.578125 C 10.957031 14.550781 11.210938 14.554688 11.492188 14.675781 C 11.800781 14.808594 12.183594 15.105469 12.246094 15.75 C 12.328125 16.589844 11.601562 17.675781 10.886719 18.199219 Z M 10.886719 18.199219 " fill-opacity="1" fill-rule="nonzero"/></g></g></g></g><g clip-path="url(#7d55568fb4)"><g clip-path="url(#4abba3421f)"><g clip-path="url(#c1558b0dd5)"><g clip-path="url(#a38188953b)"><path fill="#ffffff" d="M 11.492188 16.652344 C 11.4375 16.628906 11.410156 16.5625 11.433594 16.503906 C 11.605469 16.085938 11.625 15.753906 11.488281 15.523438 C 11.3125 15.226562 10.941406 15.183594 10.9375 15.183594 C 10.875 15.175781 10.832031 15.121094 10.835938 15.054688 C 10.84375 14.992188 10.902344 14.949219 10.964844 14.953125 C 10.984375 14.957031 11.457031 15.011719 11.6875 15.40625 C 11.863281 15.703125 11.847656 16.105469 11.644531 16.59375 C 11.621094 16.648438 11.554688 16.679688 11.492188 16.652344 C 11.496094 16.65625 11.496094 16.65625 11.492188 16.652344 Z M 11.492188 16.652344 " fill-opacity="1" fill-rule="nonzero"/></g></g></g></g><path fill="#e23030" d="M 15.621094 16.109375 C 15.121094 15.195312 14.132812 15.398438 13.867188 15.605469 C 13.675781 15.75 13.496094 15.726562 13.300781 15.605469 C 12.988281 15.414062 11.960938 15.222656 11.542969 16.109375 C 11.042969 17.179688 11.621094 19.300781 12.722656 19.300781 C 12.722656 19.300781 13 19.363281 13.453125 19.070312 C 13.53125 19.015625 13.636719 19.019531 13.710938 19.070312 C 14.167969 19.359375 14.535156 19.300781 14.535156 19.300781 C 15.445312 19.296875 16.1875 17.148438 15.621094 16.109375 Z M 15.621094 16.109375 " fill-opacity="1" fill-rule="nonzero"/><path fill="#2ecc71" d="M 14.523438 13.875 C 14.523438 13.875 13.355469 13.78125 13.609375 15.027344 C 13.609375 15.027344 14.691406 15.214844 14.523438 13.875 Z M 14.523438 13.875 " fill-opacity="1" fill-rule="nonzero"/><path fill="#211f1e" d="M 15.792969 16.015625 C 15.421875 15.335938 14.832031 15.234375 14.511719 15.234375 C 14.238281 15.234375 13.960938 15.308594 13.785156 15.425781 L 13.785156 15.230469 C 13.96875 15.222656 14.265625 15.171875 14.484375 14.925781 C 14.695312 14.6875 14.777344 14.324219 14.714844 13.855469 C 14.703125 13.765625 14.628906 13.695312 14.539062 13.6875 C 14.539062 13.6875 14.511719 13.683594 14.46875 13.683594 C 14.292969 13.683594 13.859375 13.71875 13.589844 14.046875 C 13.410156 14.265625 13.34375 14.566406 13.398438 14.9375 L 13.398438 15.4375 C 13.253906 15.351562 12.964844 15.25 12.621094 15.25 C 12.046875 15.25 11.601562 15.527344 11.367188 16.027344 C 11.019531 16.769531 11.144531 18.011719 11.640625 18.792969 C 11.925781 19.242188 12.296875 19.484375 12.707031 19.492188 C 12.726562 19.492188 12.757812 19.496094 12.796875 19.496094 C 12.925781 19.496094 13.199219 19.460938 13.558594 19.230469 C 13.578125 19.214844 13.597656 19.222656 13.609375 19.230469 C 13.96875 19.460938 14.289062 19.496094 14.449219 19.496094 C 14.496094 19.496094 14.53125 19.492188 14.550781 19.492188 C 14.914062 19.484375 15.265625 19.222656 15.546875 18.75 C 15.992188 18 16.207031 16.769531 15.792969 16.015625 Z M 13.890625 14.292969 C 14.011719 14.144531 14.210938 14.09375 14.347656 14.078125 C 14.355469 14.34375 14.304688 14.542969 14.195312 14.667969 C 14.078125 14.800781 13.90625 14.839844 13.777344 14.84375 C 13.746094 14.605469 13.785156 14.417969 13.890625 14.292969 Z M 15.214844 18.550781 C 15.003906 18.902344 14.757812 19.101562 14.539062 19.101562 C 14.527344 19.101562 14.515625 19.105469 14.507812 19.105469 C 14.5 19.105469 14.480469 19.109375 14.449219 19.109375 C 14.332031 19.109375 14.097656 19.082031 13.820312 18.902344 C 13.679688 18.816406 13.488281 18.8125 13.347656 18.902344 C 13.0625 19.089844 12.867188 19.109375 12.796875 19.109375 C 12.78125 19.109375 12.769531 19.109375 12.769531 19.109375 C 12.753906 19.105469 12.738281 19.101562 12.722656 19.101562 C 12.371094 19.101562 12.117188 18.820312 11.96875 18.585938 C 11.539062 17.914062 11.425781 16.820312 11.71875 16.191406 C 11.933594 15.734375 12.328125 15.636719 12.621094 15.636719 C 12.867188 15.636719 13.09375 15.707031 13.199219 15.769531 C 13.488281 15.949219 13.75 15.941406 13.984375 15.761719 C 14.054688 15.707031 14.253906 15.625 14.511719 15.625 C 14.796875 15.625 15.191406 15.722656 15.453125 16.203125 C 15.792969 16.828125 15.59375 17.90625 15.214844 18.550781 Z M 15.214844 18.550781 " fill-opacity="1" fill-rule="nonzero"/><path fill="#ffffff" d="M 15.171875 17.152344 C 15.117188 17.152344 15.074219 17.109375 15.074219 17.058594 C 15.070312 16.675781 14.972656 16.414062 14.789062 16.28125 C 14.554688 16.109375 14.253906 16.199219 14.253906 16.199219 C 14.199219 16.214844 14.148438 16.1875 14.132812 16.136719 C 14.117188 16.082031 14.144531 16.03125 14.195312 16.015625 C 14.210938 16.007812 14.59375 15.898438 14.90625 16.125 C 15.140625 16.296875 15.261719 16.609375 15.269531 17.054688 C 15.269531 17.109375 15.226562 17.152344 15.171875 17.152344 Z M 15.171875 17.152344 " fill-opacity="1" fill-rule="nonzero"/><path fill="#e23030" d="M 21.472656 16.472656 C 20.972656 15.558594 19.988281 15.761719 19.71875 15.96875 C 19.527344 16.113281 19.351562 16.089844 19.152344 15.96875 C 18.839844 15.777344 17.8125 15.585938 17.398438 16.476562 C 16.898438 17.542969 17.472656 19.664062 18.574219 19.664062 C 18.574219 19.664062 18.851562 19.726562 19.304688 19.433594 C 19.386719 19.382812 19.492188 19.386719 19.566406 19.433594 C 20.019531 19.722656 20.386719 19.664062 20.386719 19.664062 C 21.296875 19.664062 22.042969 17.511719 21.472656 16.472656 Z M 21.472656 16.472656 " fill-opacity="1" fill-rule="nonzero"/><path fill="#2ecc71" d="M 20.375 14.242188 C 20.375 14.242188 19.207031 14.144531 19.460938 15.394531 C 19.460938 15.394531 20.542969 15.582031 20.375 14.242188 Z M 20.375 14.242188 " fill-opacity="1" fill-rule="nonzero"/><path fill="#211f1e" d="M 21.644531 16.382812 C 21.273438 15.703125 20.683594 15.601562 20.363281 15.601562 C 20.089844 15.601562 19.8125 15.675781 19.636719 15.792969 L 19.636719 15.59375 C 19.820312 15.589844 20.121094 15.535156 20.335938 15.292969 C 20.550781 15.050781 20.628906 14.691406 20.570312 14.21875 C 20.558594 14.128906 20.484375 14.058594 20.390625 14.050781 C 20.390625 14.050781 20.367188 14.046875 20.320312 14.046875 C 20.144531 14.046875 19.710938 14.082031 19.441406 14.414062 C 19.261719 14.632812 19.195312 14.933594 19.25 15.304688 L 19.25 15.804688 C 19.105469 15.714844 18.816406 15.613281 18.476562 15.613281 C 17.902344 15.613281 17.453125 15.890625 17.222656 16.394531 C 16.875 17.136719 16.996094 18.378906 17.492188 19.160156 C 17.78125 19.609375 18.148438 19.847656 18.558594 19.855469 C 18.578125 19.859375 18.609375 19.859375 18.648438 19.859375 C 18.777344 19.859375 19.050781 19.828125 19.410156 19.59375 C 19.433594 19.582031 19.449219 19.585938 19.460938 19.59375 C 19.824219 19.824219 20.140625 19.859375 20.300781 19.859375 C 20.347656 19.859375 20.382812 19.859375 20.402344 19.855469 C 20.765625 19.847656 21.121094 19.585938 21.398438 19.113281 C 21.84375 18.363281 22.058594 17.136719 21.644531 16.382812 Z M 19.742188 14.65625 C 19.863281 14.507812 20.0625 14.457031 20.199219 14.441406 C 20.210938 14.710938 20.160156 14.90625 20.046875 15.035156 C 19.929688 15.167969 19.761719 15.203125 19.628906 15.210938 C 19.601562 14.96875 19.636719 14.78125 19.742188 14.65625 Z M 21.066406 18.914062 C 20.855469 19.265625 20.609375 19.46875 20.390625 19.46875 C 20.378906 19.46875 20.371094 19.46875 20.359375 19.46875 C 20.355469 19.472656 20.335938 19.472656 20.300781 19.472656 C 20.183594 19.472656 19.949219 19.449219 19.671875 19.269531 C 19.53125 19.179688 19.339844 19.179688 19.199219 19.269531 C 18.914062 19.453125 18.71875 19.472656 18.648438 19.472656 C 18.632812 19.472656 18.621094 19.472656 18.621094 19.472656 C 18.605469 19.46875 18.59375 19.46875 18.578125 19.46875 C 18.226562 19.46875 17.972656 19.1875 17.820312 18.953125 C 17.394531 18.28125 17.28125 17.183594 17.574219 16.558594 C 17.785156 16.097656 18.183594 16.003906 18.476562 16.003906 C 18.722656 16.003906 18.945312 16.070312 19.050781 16.136719 C 19.339844 16.3125 19.601562 16.304688 19.835938 16.125 C 19.90625 16.070312 20.105469 15.988281 20.363281 15.988281 C 20.648438 15.988281 21.042969 16.089844 21.304688 16.566406 C 21.648438 17.191406 21.445312 18.273438 21.066406 18.914062 Z M 21.066406 18.914062 " fill-opacity="1" fill-rule="nonzero"/><path fill="#ffffff" d="M 21.023438 17.519531 C 20.96875 17.519531 20.925781 17.476562 20.925781 17.421875 C 20.921875 17.039062 20.824219 16.777344 20.640625 16.644531 C 20.410156 16.476562 20.105469 16.5625 20.105469 16.566406 C 20.054688 16.582031 20 16.550781 19.984375 16.5 C 19.96875 16.449219 19.996094 16.394531 20.050781 16.378906 C 20.066406 16.375 20.449219 16.261719 20.757812 16.488281 C 20.992188 16.660156 21.113281 16.972656 21.121094 17.421875 C 21.121094 17.472656 21.078125 17.515625 21.023438 17.519531 Z M 21.023438 17.519531 " fill-opacity="1" fill-rule="nonzero"/><g clip-path="url(#95f86e7059)"><g clip-path="url(#1462cb2baa)"><g clip-path="url(#cb03fa47a4)"><g clip-path="url(#100d58549e)"><path fill="#e23030" d="M 23.980469 15.105469 C 23.324219 14.382812 22.46875 14.785156 22.269531 15.035156 C 22.128906 15.207031 21.960938 15.226562 21.753906 15.160156 C 21.425781 15.054688 20.449219 15.105469 20.265625 16.007812 C 20.046875 17.09375 21.039062 18.898438 22.046875 18.652344 C 22.046875 18.652344 22.3125 18.648438 22.660156 18.28125 C 22.71875 18.214844 22.816406 18.199219 22.894531 18.226562 C 23.375 18.390625 23.695312 18.253906 23.695312 18.253906 C 24.523438 18.050781 24.730469 15.929688 23.980469 15.105469 Z M 23.980469 15.105469 " fill-opacity="1" fill-rule="nonzero"/></g></g></g></g><g clip-path="url(#313e7c6599)"><g clip-path="url(#9baac5213c)"><g clip-path="url(#a55b1273cf)"><g clip-path="url(#35557b814b)"><path fill="#2ecc71" d="M 22.488281 13.316406 C 22.488281 13.316406 21.402344 13.484375 21.90625 14.566406 C 21.90625 14.566406 22.933594 14.5 22.488281 13.316406 Z M 22.488281 13.316406 " fill-opacity="1" fill-rule="nonzero"/></g></g></g></g><g clip-path="url(#3e3df30ecf)"><g clip-path="url(#03cc0d8752)"><g clip-path="url(#95545c45ae)"><g clip-path="url(#0b248a13cb)"><path fill="#211f1e" d="M 24.117188 14.984375 C 23.628906 14.449219 23.066406 14.484375 22.777344 14.554688 C 22.527344 14.617188 22.292969 14.746094 22.15625 14.890625 L 22.113281 14.710938 C 22.28125 14.664062 22.539062 14.550781 22.683594 14.28125 C 22.824219 14.015625 22.816406 13.667969 22.660156 13.253906 C 22.628906 13.171875 22.546875 13.125 22.460938 13.136719 C 22.460938 13.136719 22.4375 13.140625 22.394531 13.152344 C 22.234375 13.191406 21.847656 13.320312 21.671875 13.675781 C 21.558594 13.917969 21.566406 14.203125 21.695312 14.53125 L 21.804688 14.988281 C 21.65625 14.9375 21.371094 14.910156 21.058594 14.988281 C 20.535156 15.113281 20.191406 15.464844 20.089844 15.972656 C 19.9375 16.726562 20.320312 17.832031 20.949219 18.433594 C 21.308594 18.777344 21.695312 18.917969 22.074219 18.832031 C 22.089844 18.832031 22.121094 18.824219 22.15625 18.816406 C 22.273438 18.789062 22.515625 18.695312 22.789062 18.40625 C 22.808594 18.386719 22.824219 18.390625 22.835938 18.394531 C 23.21875 18.523438 23.515625 18.488281 23.660156 18.453125 C 23.703125 18.441406 23.734375 18.429688 23.753906 18.425781 C 24.082031 18.335938 24.347656 18.019531 24.496094 17.527344 C 24.738281 16.746094 24.660156 15.582031 24.117188 14.984375 Z M 22.003906 13.835938 C 22.082031 13.671875 22.25 13.582031 22.371094 13.539062 C 22.441406 13.777344 22.4375 13.96875 22.363281 14.109375 C 22.285156 14.257812 22.140625 14.328125 22.019531 14.363281 C 21.941406 14.148438 21.933594 13.972656 22.003906 13.835938 Z M 24.148438 17.421875 C 24.035156 17.789062 23.855469 18.023438 23.65625 18.074219 C 23.648438 18.074219 23.636719 18.078125 23.628906 18.082031 C 23.625 18.085938 23.605469 18.089844 23.574219 18.097656 C 23.46875 18.125 23.25 18.152344 22.957031 18.050781 C 22.808594 18 22.632812 18.042969 22.527344 18.15625 C 22.308594 18.386719 22.132812 18.449219 22.070312 18.464844 C 22.054688 18.46875 22.046875 18.46875 22.042969 18.46875 C 22.03125 18.46875 22.015625 18.472656 22.003906 18.472656 C 21.683594 18.550781 21.390625 18.351562 21.199219 18.171875 C 20.664062 17.652344 20.316406 16.679688 20.445312 16.042969 C 20.539062 15.578125 20.878906 15.40625 21.144531 15.339844 C 21.371094 15.285156 21.589844 15.296875 21.699219 15.335938 C 22.003906 15.433594 22.238281 15.367188 22.414062 15.148438 C 22.464844 15.085938 22.628906 14.96875 22.863281 14.910156 C 23.121094 14.847656 23.503906 14.851562 23.847656 15.230469 C 24.296875 15.722656 24.355469 16.75 24.148438 17.421875 Z M 24.148438 17.421875 " fill-opacity="1" fill-rule="nonzero"/></g></g></g></g><g clip-path="url(#d94019e901)"><g clip-path="url(#0587faebab)"><g clip-path="url(#e9d73d37d6)"><g clip-path="url(#d327050784)"><path fill="#ffffff" d="M 23.800781 16.15625 C 23.753906 16.167969 23.703125 16.140625 23.691406 16.089844 C 23.601562 15.746094 23.457031 15.527344 23.261719 15.445312 C 23.011719 15.34375 22.753906 15.492188 22.753906 15.492188 C 22.710938 15.519531 22.65625 15.503906 22.628906 15.460938 C 22.605469 15.417969 22.617188 15.359375 22.660156 15.335938 C 22.675781 15.328125 23 15.140625 23.332031 15.277344 C 23.582031 15.382812 23.765625 15.640625 23.867188 16.046875 C 23.878906 16.09375 23.851562 16.144531 23.800781 16.15625 Z M 23.800781 16.15625 " fill-opacity="1" fill-rule="nonzero"/></g></g></g></g><g clip-path="url(#8a347cd4fa)"><g clip-path="url(#e2f2439871)"><g clip-path="url(#d12dc92159)"><g clip-path="url(#2275329c7c)"><path fill="#e23030" d="M 28.335938 15.488281 C 27.742188 14.710938 26.855469 15.039062 26.636719 15.269531 C 26.484375 15.429688 26.3125 15.433594 26.113281 15.351562 C 25.796875 15.21875 24.816406 15.1875 24.558594 16.070312 C 24.25 17.132812 25.082031 19.015625 26.105469 18.855469 C 26.105469 18.855469 26.371094 18.875 26.75 18.539062 C 26.816406 18.480469 26.914062 18.46875 26.992188 18.5 C 27.453125 18.707031 27.785156 18.597656 27.785156 18.597656 C 28.625 18.464844 29.011719 16.367188 28.335938 15.488281 Z M 28.335938 15.488281 " fill-opacity="1" fill-rule="nonzero"/></g></g></g></g><g clip-path="url(#a4384d190a)"><g clip-path="url(#d281b03521)"><g clip-path="url(#ba8ca2df90)"><g clip-path="url(#94ae572b69)"><path fill="#2ecc71" d="M 27 13.574219 C 27 13.574219 25.902344 13.652344 26.316406 14.773438 C 26.316406 14.773438 27.34375 14.792969 27 13.574219 Z M 27 13.574219 " fill-opacity="1" fill-rule="nonzero"/></g></g></g></g><g clip-path="url(#e22c69f598)"><g clip-path="url(#a14e6c0391)"><g clip-path="url(#edfc119805)"><g clip-path="url(#228b220948)"><path fill="#211f1e" d="M 28.480469 15.375 C 28.039062 14.800781 27.476562 14.789062 27.183594 14.835938 C 26.929688 14.875 26.683594 14.984375 26.535156 15.117188 L 26.507812 14.933594 C 26.679688 14.902344 26.945312 14.8125 27.113281 14.554688 C 27.277344 14.300781 27.296875 13.953125 27.175781 13.527344 C 27.152344 13.445312 27.074219 13.390625 26.988281 13.394531 C 26.988281 13.394531 26.960938 13.398438 26.921875 13.402344 C 26.757812 13.429688 26.359375 13.523438 26.15625 13.867188 C 26.023438 14.097656 26.007812 14.382812 26.109375 14.71875 L 26.179688 15.183594 C 26.035156 15.121094 25.753906 15.070312 25.433594 15.121094 C 24.902344 15.203125 24.527344 15.519531 24.382812 16.019531 C 24.167969 16.757812 24.457031 17.890625 25.03125 18.542969 C 25.359375 18.917969 25.738281 19.089844 26.117188 19.035156 C 26.136719 19.035156 26.164062 19.035156 26.199219 19.027344 C 26.324219 19.011719 26.570312 18.941406 26.871094 18.671875 C 26.886719 18.65625 26.90625 18.660156 26.917969 18.664062 C 27.285156 18.828125 27.585938 18.816406 27.734375 18.792969 C 27.777344 18.785156 27.808594 18.777344 27.828125 18.773438 C 28.164062 18.714844 28.453125 18.421875 28.644531 17.945312 C 28.949219 17.183594 28.972656 16.015625 28.480469 15.375 Z M 26.472656 14.050781 C 26.5625 13.894531 26.742188 13.820312 26.863281 13.785156 C 26.914062 14.03125 26.894531 14.222656 26.808594 14.355469 C 26.71875 14.496094 26.566406 14.554688 26.445312 14.578125 C 26.382812 14.359375 26.394531 14.183594 26.472656 14.050781 Z M 28.308594 17.808594 C 28.164062 18.164062 27.964844 18.382812 27.757812 18.414062 C 27.75 18.417969 27.742188 18.417969 27.730469 18.421875 C 27.726562 18.421875 27.707031 18.429688 27.675781 18.433594 C 27.570312 18.449219 27.347656 18.460938 27.066406 18.332031 C 26.921875 18.269531 26.746094 18.296875 26.628906 18.402344 C 26.390625 18.613281 26.210938 18.660156 26.148438 18.667969 C 26.132812 18.671875 26.121094 18.671875 26.121094 18.671875 C 26.105469 18.671875 26.09375 18.671875 26.078125 18.675781 C 25.753906 18.726562 25.476562 18.5 25.304688 18.304688 C 24.8125 17.742188 24.550781 16.742188 24.734375 16.121094 C 24.867188 15.664062 25.21875 15.519531 25.492188 15.476562 C 25.71875 15.441406 25.9375 15.472656 26.042969 15.519531 C 26.335938 15.644531 26.578125 15.597656 26.769531 15.398438 C 26.828125 15.335938 27 15.234375 27.238281 15.195312 C 27.503906 15.15625 27.882812 15.191406 28.191406 15.597656 C 28.597656 16.128906 28.566406 17.15625 28.308594 17.808594 Z M 28.308594 17.808594 " fill-opacity="1" fill-rule="nonzero"/></g></g></g></g><g clip-path="url(#4d44a4f90e)"><g clip-path="url(#3308c66799)"><g clip-path="url(#371c371a57)"><g clip-path="url(#a3aac55740)"><path fill="#ffffff" d="M 28.066406 16.519531 C 28.019531 16.527344 27.972656 16.492188 27.964844 16.445312 C 27.90625 16.089844 27.777344 15.863281 27.589844 15.765625 C 27.347656 15.640625 27.082031 15.765625 27.082031 15.765625 C 27.035156 15.789062 26.980469 15.769531 26.960938 15.722656 C 26.9375 15.679688 26.957031 15.625 27.003906 15.601562 C 27.015625 15.597656 27.355469 15.4375 27.671875 15.601562 C 27.914062 15.730469 28.074219 16 28.144531 16.414062 C 28.152344 16.460938 28.117188 16.507812 28.066406 16.519531 Z M 28.066406 16.519531 " fill-opacity="1" fill-rule="nonzero"/></g></g></g></g><g clip-path="url(#5a2a0fc20b)"><g clip-path="url(#cb269bdb05)"><path fill="url(#7e93a84cfb)" d="M 5.59375 2.929688 L 5.59375 21.539062 L 30.40625 21.539062 L 30.40625 2.929688 Z M 5.59375 2.929688 " fill-rule="nonzero"/></g></g><g clip-path="url(#cc9706c6ea)"><g clip-path="url(#ae7918881b)"><path fill="url(#7315f464e1)" d="M 3.632812 17.527344 L 3.632812 32.121094 L 32.382812 32.121094 L 32.382812 17.527344 Z M 3.632812 17.527344 " fill-rule="nonzero"/></g></g><path fill="#000000" d="M 31.863281 19.714844 L 4.136719 19.714844 C 4.0625 19.714844 3.988281 19.707031 3.921875 19.699219 L 3.988281 20.074219 L 4.003906 20.183594 L 4.046875 20.4375 C 4.078125 20.445312 4.105469 20.445312 4.136719 20.445312 L 31.863281 20.445312 C 31.902344 20.445312 31.9375 20.445312 31.96875 20.4375 L 32.011719 20.183594 L 32.027344 20.074219 L 32.089844 19.691406 C 32.019531 19.707031 31.945312 19.714844 31.863281 19.714844 Z M 31.863281 19.714844 " fill-opacity="0.0471" fill-rule="nonzero"/><path fill="#000000" d="M 31.863281 19.714844 L 4.136719 19.714844 C 4.0625 19.714844 3.988281 19.707031 3.921875 19.699219 L 3.988281 20.074219 C 4.039062 20.078125 4.085938 20.078125 4.136719 20.078125 L 31.863281 20.078125 C 31.914062 20.078125 31.972656 20.078125 32.027344 20.074219 L 32.089844 19.691406 C 32.019531 19.707031 31.945312 19.714844 31.863281 19.714844 Z M 31.863281 19.714844 " fill-opacity="0.0667" fill-rule="nonzero"/><g clip-path="url(#5fddc1438a)"><g clip-path="url(#68f87bbad3)"><path fill="url(#0c60ff036e)" d="M 2.675781 16.796875 L 2.675781 19.714844 L 33.324219 19.714844 L 33.324219 16.796875 Z M 2.675781 16.796875 " fill-rule="nonzero"/></g></g><g clip-path="url(#97491b9dd5)"><g clip-path="url(#a15b24e217)"><path fill="url(#432d696696)" d="M 5.59375 21.175781 L 5.59375 30.660156 L 30.40625 30.660156 L 30.40625 21.175781 Z M 5.59375 21.175781 " fill-rule="nonzero"/></g></g></svg>