<svg xmlns="http://www.w3.org/2000/svg"  viewBox="0 0 64 64" width="64px" height="64px" baseProfile="basic"><path fill="#cd2e42" d="M32.985,15.383c-0.018,5.004-4.109,8.627-7.299,8.617c-1.039-0.003-1.036-0.718-1.728-0.721	c-0.692-0.002-0.695,0.713-2.08,0.709c-3.196-0.01-6.91-3.816-6.893-8.662C14.999,11.46,17.487,8.99,20.546,9	c0.907,0.003,1.761,0.375,2.514,0.866c0.572,0.373,1.316,0.376,1.89,0.006c0.756-0.487,1.612-0.853,2.519-0.85	C30.527,9.032,32.999,11.518,32.985,15.383z"/><path fill="#cd2e42" d="M48.985,15.383c-0.018,5.004-4.109,8.627-7.299,8.617c-1.039-0.003-1.036-0.718-1.728-0.721	c-0.692-0.002-0.695,0.713-2.08,0.709c-3.196-0.01-6.91-3.816-6.893-8.662C30.999,11.46,33.487,8.99,36.546,9	c0.907,0.003,1.761,0.375,2.514,0.866c0.572,0.373,1.316,0.376,1.89,0.006c0.756-0.487,1.612-0.853,2.519-0.85	C46.527,9.032,48.999,11.518,48.985,15.383z"/><path fill="#98c900" d="M33.937,7.152c0.15,0.417-0.068,0.885-0.467,1.007c-0.816,0.248-2.208,0.508-3.364-0.097	c-1.145-0.599-1.775-1.9-2.074-2.731c-0.15-0.417,0.068-0.885,0.467-1.007c0.816-0.248,2.208-0.508,3.364,0.097	C33.008,5.02,33.638,6.321,33.937,7.152z"/><path fill="#fd3c4f" d="M40.985,13.383c-0.018,5.004-4.109,8.627-7.299,8.617c-1.039-0.003-1.036-0.718-1.728-0.721	c-0.692-0.002-0.695,0.713-2.08,0.709c-3.196-0.01-6.91-3.816-6.893-8.662C22.999,9.46,25.487,6.99,28.546,7	c0.907,0.003,1.761,0.375,2.514,0.866c0.572,0.373,1.316,0.376,1.89,0.006c0.756-0.487,1.612-0.853,2.519-0.85	C38.527,7.032,40.999,9.518,40.985,13.383z"/><path fill="#fff" d="M33.49,7.56c-0.184,0.096-0.365,0.2-0.54,0.312c-0.574,0.37-1.318,0.367-1.89-0.006	C30.306,7.375,29.452,7.003,28.546,7c-3.059-0.01-5.547,2.46-5.561,6.326c-0.006,1.676,0.441,3.221,1.151,4.534	c2.131-0.502,3.76-2.361,3.852-4.656c0-0.013,0.054-1.204,0.54-1.204h0.001c0.006,0,0.012,0,0.017,0	C31.114,12,33.208,10.056,33.49,7.56z" opacity=".3"/><ellipse cx="32" cy="61" opacity=".3" rx="19" ry="3"/><path fill="orange" d="M46.898,55H17.102c-4.288,0-7.591-3.78-7.017-8.029L14,18h36l3.915,28.971	C54.489,51.22,51.185,55,46.898,55z"/><path fill="#ffce29" d="M51.438,25H12.562c-1.301,0-2.256-1.223-1.94-2.485l0.811-3.243C11.766,17.937,12.966,17,14.342,17	h35.315c1.377,0,2.577,0.937,2.91,2.272l0.811,3.243C53.694,23.777,52.74,25,51.438,25z"/><path fill="#98c900" d="M51.937,40.152c0.15,0.417-0.068,0.885-0.467,1.007c-0.816,0.248-2.208,0.508-3.364-0.097	c-1.145-0.599-1.775-1.9-2.074-2.731c-0.15-0.417,0.068-0.885,0.467-1.007c0.816-0.248,2.208-0.508,3.364,0.097	C51.008,38.02,51.638,39.321,51.937,40.152z"/><path fill="#fd3c4f" d="M58.985,46.383c-0.018,5.004-4.109,8.627-7.299,8.617c-1.039-0.003-1.036-0.718-1.728-0.721	c-0.692-0.002-0.695,0.713-2.08,0.709c-3.196-0.01-6.91-3.816-6.893-8.662c0.014-3.866,2.502-6.335,5.561-6.326	c0.907,0.003,1.761,0.375,2.514,0.866c0.572,0.373,1.316,0.376,1.89,0.006c0.756-0.487,1.612-0.853,2.519-0.85	C56.527,40.032,58.999,42.518,58.985,46.383z"/><path d="M46.702,54.82c0.394,0.107,0.789,0.167,1.175,0.168c1.385,0.004,1.387-0.711,2.08-0.708	c0.692,0.002,0.69,0.717,1.728,0.72c3.19,0.01,7.282-3.613,7.299-8.617c0.007-1.973-0.636-3.584-1.672-4.692	c-1.929,0.688-3.321,2.509-3.329,4.675c-0.008,2.226-1.765,3.522-2.33,3.634C48.971,50.016,46.799,52.152,46.702,54.82z" opacity=".15"/><path fill="none" stroke="#fff" stroke-linecap="round" stroke-linejoin="round" stroke-miterlimit="10" stroke-width="3" d="M26.485,13.339c0-2.534,2.042-2.839,2.042-2.839"/></svg>